solid OpenSCAD_Model
  facet normal -0.998027 0.0627906 0
    outer loop
      vertex -8.75 0 -1.07157e-15
      vertex -8.681 1.09667 10
      vertex -8.681 1.09667 -1.06312e-15
    endloop
  endfacet
  facet normal -0.998027 0.0627906 0
    outer loop
      vertex -8.681 1.09667 10
      vertex -8.75 0 -1.07157e-15
      vertex -8.75 0 10
    endloop
  endfacet
  facet normal 0.998027 0.0627906 0
    outer loop
      vertex 8.75 0 10
      vertex 8.681 1.09667 1.06312e-15
      vertex 8.681 1.09667 10
    endloop
  endfacet
  facet normal 0.998027 0.0627906 0
    outer loop
      vertex 8.681 1.09667 1.06312e-15
      vertex 8.75 0 10
      vertex 8.75 0 1.07157e-15
    endloop
  endfacet
  facet normal 0 1 -0
    outer loop
      vertex 0.549417 8.73273 6.72841e-17
      vertex -0.549417 8.73273 10
      vertex 0.549417 8.73273 10
    endloop
  endfacet
  facet normal 0 1 0
    outer loop
      vertex -0.549417 8.73273 10
      vertex 0.549417 8.73273 6.72841e-17
      vertex -0.549417 8.73273 -6.72841e-17
    endloop
  endfacet
  facet normal 0 -1 0
    outer loop
      vertex -0.549417 -8.73273 10
      vertex 0.549417 -8.73273 6.72841e-17
      vertex 0.549417 -8.73273 10
    endloop
  endfacet
  facet normal -0 -1 0
    outer loop
      vertex 0.549417 -8.73273 6.72841e-17
      vertex -0.549417 -8.73273 10
      vertex -0.549417 -8.73273 -6.72841e-17
    endloop
  endfacet
  facet normal -0.684547 0.728969 0
    outer loop
      vertex -5.57746 6.74199 -6.83042e-16
      vertex -6.37848 5.98979 10
      vertex -5.57746 6.74199 10
    endloop
  endfacet
  facet normal -0.684547 0.728969 0
    outer loop
      vertex -6.37848 5.98979 10
      vertex -5.57746 6.74199 -6.83042e-16
      vertex -6.37848 5.98979 -7.81138e-16
    endloop
  endfacet
  facet normal 0.684547 0.728969 -0
    outer loop
      vertex 6.37848 5.98979 7.81138e-16
      vertex 5.57746 6.74199 10
      vertex 6.37848 5.98979 10
    endloop
  endfacet
  facet normal 0.684547 0.728969 0
    outer loop
      vertex 5.57746 6.74199 10
      vertex 6.37848 5.98979 7.81138e-16
      vertex 5.57746 6.74199 6.83042e-16
    endloop
  endfacet
  facet normal 0.368124 0.929777 -0
    outer loop
      vertex 3.72557 7.91724 4.56251e-16
      vertex 2.7039 8.32174 10
      vertex 3.72557 7.91724 10
    endloop
  endfacet
  facet normal 0.368124 0.929777 0
    outer loop
      vertex 2.7039 8.32174 10
      vertex 3.72557 7.91724 4.56251e-16
      vertex 2.7039 8.32174 3.31132e-16
    endloop
  endfacet
  facet normal -0.904827 0.425779 0
    outer loop
      vertex -8.13554 3.22109 -9.96317e-16
      vertex -7.66768 4.21534 10
      vertex -7.66768 4.21534 -9.3902e-16
    endloop
  endfacet
  facet normal -0.904827 0.425779 0
    outer loop
      vertex -7.66768 4.21534 10
      vertex -8.13554 3.22109 -9.96317e-16
      vertex -8.13554 3.22109 10
    endloop
  endfacet
  facet normal -0.368124 0.929777 0
    outer loop
      vertex -2.7039 8.32174 -3.31132e-16
      vertex -3.72557 7.91724 10
      vertex -2.7039 8.32174 10
    endloop
  endfacet
  facet normal -0.368124 0.929777 0
    outer loop
      vertex -3.72557 7.91724 10
      vertex -2.7039 8.32174 -3.31132e-16
      vertex -3.72557 7.91724 -4.56251e-16
    endloop
  endfacet
  facet normal -0.481754 0.876307 0
    outer loop
      vertex -3.72557 7.91724 -4.56251e-16
      vertex -4.68848 7.38787 10
      vertex -3.72557 7.91724 10
    endloop
  endfacet
  facet normal -0.481754 0.876307 0
    outer loop
      vertex -4.68848 7.38787 10
      vertex -3.72557 7.91724 -4.56251e-16
      vertex -4.68848 7.38787 -5.74174e-16
    endloop
  endfacet
  facet normal 0.904827 0.425779 0
    outer loop
      vertex 8.13554 3.22109 10
      vertex 7.66768 4.21534 9.3902e-16
      vertex 7.66768 4.21534 10
    endloop
  endfacet
  facet normal 0.904827 0.425779 0
    outer loop
      vertex 7.66768 4.21534 9.3902e-16
      vertex 8.13554 3.22109 10
      vertex 8.13554 3.22109 9.96317e-16
    endloop
  endfacet
  facet normal 0.770513 0.637424 0
    outer loop
      vertex 7.0789 5.14312 10
      vertex 6.37848 5.98979 7.81138e-16
      vertex 6.37848 5.98979 10
    endloop
  endfacet
  facet normal 0.770513 0.637424 0
    outer loop
      vertex 6.37848 5.98979 7.81138e-16
      vertex 7.0789 5.14312 10
      vertex 7.0789 5.14312 8.66915e-16
    endloop
  endfacet
  facet normal 1.22464e-16 0 -1
    outer loop
      vertex 8.681 -1.09667 1.06312e-15
      vertex 8.681 1.09667 1.06312e-15
      vertex 8.75 0 1.07157e-15
    endloop
  endfacet
  facet normal 1.22465e-16 0 -1
    outer loop
      vertex 8.4751 -2.17604 1.0379e-15
      vertex 8.681 1.09667 1.06312e-15
      vertex 8.681 -1.09667 1.06312e-15
    endloop
  endfacet
  facet normal 1.22465e-16 0 -1
    outer loop
      vertex 8.4751 -2.17604 1.0379e-15
      vertex 8.4751 2.17604 1.0379e-15
      vertex 8.681 1.09667 1.06312e-15
    endloop
  endfacet
  facet normal 1.22465e-16 0 -1
    outer loop
      vertex 8.13554 -3.22109 9.96317e-16
      vertex 8.4751 2.17604 1.0379e-15
      vertex 8.4751 -2.17604 1.0379e-15
    endloop
  endfacet
  facet normal 1.22465e-16 0 -1
    outer loop
      vertex 8.13554 -3.22109 9.96317e-16
      vertex 8.13554 3.22109 9.96317e-16
      vertex 8.4751 2.17604 1.0379e-15
    endloop
  endfacet
  facet normal 1.22465e-16 0 -1
    outer loop
      vertex 7.66768 -4.21534 9.3902e-16
      vertex 8.13554 3.22109 9.96317e-16
      vertex 8.13554 -3.22109 9.96317e-16
    endloop
  endfacet
  facet normal 1.22465e-16 0 -1
    outer loop
      vertex 7.66768 -4.21534 9.3902e-16
      vertex 7.66768 4.21534 9.3902e-16
      vertex 8.13554 3.22109 9.96317e-16
    endloop
  endfacet
  facet normal 1.22465e-16 0 -1
    outer loop
      vertex 7.0789 -5.14312 8.66915e-16
      vertex 7.66768 4.21534 9.3902e-16
      vertex 7.66768 -4.21534 9.3902e-16
    endloop
  endfacet
  facet normal 1.22465e-16 0 -1
    outer loop
      vertex 7.0789 -5.14312 8.66915e-16
      vertex 7.0789 5.14312 8.66915e-16
      vertex 7.66768 4.21534 9.3902e-16
    endloop
  endfacet
  facet normal 1.22465e-16 0 -1
    outer loop
      vertex 6.37848 -5.98979 7.81138e-16
      vertex 7.0789 5.14312 8.66915e-16
      vertex 7.0789 -5.14312 8.66915e-16
    endloop
  endfacet
  facet normal 1.22465e-16 0 -1
    outer loop
      vertex 6.37848 -5.98979 7.81138e-16
      vertex 6.37848 5.98979 7.81138e-16
      vertex 7.0789 5.14312 8.66915e-16
    endloop
  endfacet
  facet normal 1.22465e-16 0 -1
    outer loop
      vertex 5.57746 -6.74199 6.83042e-16
      vertex 6.37848 5.98979 7.81138e-16
      vertex 6.37848 -5.98979 7.81138e-16
    endloop
  endfacet
  facet normal 1.22465e-16 0 -1
    outer loop
      vertex 5.57746 -6.74199 6.83042e-16
      vertex 5.57746 6.74199 6.83042e-16
      vertex 6.37848 5.98979 7.81138e-16
    endloop
  endfacet
  facet normal 1.22465e-16 0 -1
    outer loop
      vertex 4.68848 -7.38787 5.74174e-16
      vertex 5.57746 6.74199 6.83042e-16
      vertex 5.57746 -6.74199 6.83042e-16
    endloop
  endfacet
  facet normal 1.22465e-16 0 -1
    outer loop
      vertex 4.68848 -7.38787 5.74174e-16
      vertex 4.68848 7.38787 5.74174e-16
      vertex 5.57746 6.74199 6.83042e-16
    endloop
  endfacet
  facet normal 1.22465e-16 0 -1
    outer loop
      vertex 3.72557 -7.91724 4.56251e-16
      vertex 4.68848 7.38787 5.74174e-16
      vertex 4.68848 -7.38787 5.74174e-16
    endloop
  endfacet
  facet normal 1.22465e-16 0 -1
    outer loop
      vertex 3.72557 -7.91724 4.56251e-16
      vertex 3.72557 7.91724 4.56251e-16
      vertex 4.68848 7.38787 5.74174e-16
    endloop
  endfacet
  facet normal 1.22465e-16 0 -1
    outer loop
      vertex 2.7039 -8.32174 3.31132e-16
      vertex 3.72557 7.91724 4.56251e-16
      vertex 3.72557 -7.91724 4.56251e-16
    endloop
  endfacet
  facet normal 1.22465e-16 0 -1
    outer loop
      vertex 2.7039 -8.32174 3.31132e-16
      vertex 2.7039 8.32174 3.31132e-16
      vertex 3.72557 7.91724 4.56251e-16
    endloop
  endfacet
  facet normal 1.22465e-16 0 -1
    outer loop
      vertex 1.63959 -8.59501 2.00791e-16
      vertex 2.7039 8.32174 3.31132e-16
      vertex 2.7039 -8.32174 3.31132e-16
    endloop
  endfacet
  facet normal 1.22465e-16 0 -1
    outer loop
      vertex 1.63959 -8.59501 2.00791e-16
      vertex 1.63959 8.59501 2.00791e-16
      vertex 2.7039 8.32174 3.31132e-16
    endloop
  endfacet
  facet normal 1.22465e-16 0 -1
    outer loop
      vertex 0.549417 -8.73273 6.72841e-17
      vertex 1.63959 8.59501 2.00791e-16
      vertex 1.63959 -8.59501 2.00791e-16
    endloop
  endfacet
  facet normal 1.22465e-16 0 -1
    outer loop
      vertex 0.549417 -8.73273 6.72841e-17
      vertex 0.549417 8.73273 6.72841e-17
      vertex 1.63959 8.59501 2.00791e-16
    endloop
  endfacet
  facet normal 1.22465e-16 0 -1
    outer loop
      vertex -0.549417 -8.73273 -6.72841e-17
      vertex 0.549417 8.73273 6.72841e-17
      vertex 0.549417 -8.73273 6.72841e-17
    endloop
  endfacet
  facet normal 1.22465e-16 0 -1
    outer loop
      vertex -0.549417 -8.73273 -6.72841e-17
      vertex -0.549417 8.73273 -6.72841e-17
      vertex 0.549417 8.73273 6.72841e-17
    endloop
  endfacet
  facet normal 1.22465e-16 0 -1
    outer loop
      vertex -1.63959 -8.59501 -2.00791e-16
      vertex -0.549417 8.73273 -6.72841e-17
      vertex -0.549417 -8.73273 -6.72841e-17
    endloop
  endfacet
  facet normal 1.22465e-16 0 -1
    outer loop
      vertex -1.63959 -8.59501 -2.00791e-16
      vertex -1.63959 8.59501 -2.00791e-16
      vertex -0.549417 8.73273 -6.72841e-17
    endloop
  endfacet
  facet normal 1.22465e-16 0 -1
    outer loop
      vertex -2.7039 -8.32174 -3.31132e-16
      vertex -1.63959 8.59501 -2.00791e-16
      vertex -1.63959 -8.59501 -2.00791e-16
    endloop
  endfacet
  facet normal 1.22465e-16 0 -1
    outer loop
      vertex -2.7039 -8.32174 -3.31132e-16
      vertex -2.7039 8.32174 -3.31132e-16
      vertex -1.63959 8.59501 -2.00791e-16
    endloop
  endfacet
  facet normal 1.22465e-16 0 -1
    outer loop
      vertex -3.72557 -7.91724 -4.56251e-16
      vertex -2.7039 8.32174 -3.31132e-16
      vertex -2.7039 -8.32174 -3.31132e-16
    endloop
  endfacet
  facet normal 1.22465e-16 0 -1
    outer loop
      vertex -3.72557 -7.91724 -4.56251e-16
      vertex -3.72557 7.91724 -4.56251e-16
      vertex -2.7039 8.32174 -3.31132e-16
    endloop
  endfacet
  facet normal 1.22465e-16 0 -1
    outer loop
      vertex -4.68848 -7.38787 -5.74174e-16
      vertex -3.72557 7.91724 -4.56251e-16
      vertex -3.72557 -7.91724 -4.56251e-16
    endloop
  endfacet
  facet normal 1.22465e-16 0 -1
    outer loop
      vertex -4.68848 -7.38787 -5.74174e-16
      vertex -4.68848 7.38787 -5.74174e-16
      vertex -3.72557 7.91724 -4.56251e-16
    endloop
  endfacet
  facet normal 1.22465e-16 0 -1
    outer loop
      vertex -5.57746 -6.74199 -6.83042e-16
      vertex -4.68848 7.38787 -5.74174e-16
      vertex -4.68848 -7.38787 -5.74174e-16
    endloop
  endfacet
  facet normal 1.22465e-16 0 -1
    outer loop
      vertex -5.57746 -6.74199 -6.83042e-16
      vertex -5.57746 6.74199 -6.83042e-16
      vertex -4.68848 7.38787 -5.74174e-16
    endloop
  endfacet
  facet normal 1.22465e-16 0 -1
    outer loop
      vertex -6.37848 -5.98979 -7.81138e-16
      vertex -5.57746 6.74199 -6.83042e-16
      vertex -5.57746 -6.74199 -6.83042e-16
    endloop
  endfacet
  facet normal 1.22465e-16 0 -1
    outer loop
      vertex -6.37848 -5.98979 -7.81138e-16
      vertex -6.37848 5.98979 -7.81138e-16
      vertex -5.57746 6.74199 -6.83042e-16
    endloop
  endfacet
  facet normal 1.22465e-16 0 -1
    outer loop
      vertex -7.0789 -5.14312 -8.66915e-16
      vertex -6.37848 5.98979 -7.81138e-16
      vertex -6.37848 -5.98979 -7.81138e-16
    endloop
  endfacet
  facet normal 1.22465e-16 0 -1
    outer loop
      vertex -7.0789 -5.14312 -8.66915e-16
      vertex -7.0789 5.14312 -8.66915e-16
      vertex -6.37848 5.98979 -7.81138e-16
    endloop
  endfacet
  facet normal 1.22465e-16 0 -1
    outer loop
      vertex -7.66768 -4.21534 -9.3902e-16
      vertex -7.0789 5.14312 -8.66915e-16
      vertex -7.0789 -5.14312 -8.66915e-16
    endloop
  endfacet
  facet normal 1.22465e-16 0 -1
    outer loop
      vertex -7.66768 -4.21534 -9.3902e-16
      vertex -7.66768 4.21534 -9.3902e-16
      vertex -7.0789 5.14312 -8.66915e-16
    endloop
  endfacet
  facet normal 1.22465e-16 0 -1
    outer loop
      vertex -8.13554 -3.22109 -9.96317e-16
      vertex -7.66768 4.21534 -9.3902e-16
      vertex -7.66768 -4.21534 -9.3902e-16
    endloop
  endfacet
  facet normal 1.22465e-16 0 -1
    outer loop
      vertex -8.13554 -3.22109 -9.96317e-16
      vertex -8.13554 3.22109 -9.96317e-16
      vertex -7.66768 4.21534 -9.3902e-16
    endloop
  endfacet
  facet normal 1.22465e-16 0 -1
    outer loop
      vertex -8.4751 -2.17604 -1.0379e-15
      vertex -8.13554 3.22109 -9.96317e-16
      vertex -8.13554 -3.22109 -9.96317e-16
    endloop
  endfacet
  facet normal 1.22465e-16 0 -1
    outer loop
      vertex -8.4751 -2.17604 -1.0379e-15
      vertex -8.4751 2.17604 -1.0379e-15
      vertex -8.13554 3.22109 -9.96317e-16
    endloop
  endfacet
  facet normal 1.22465e-16 0 -1
    outer loop
      vertex -8.681 -1.09667 -1.06312e-15
      vertex -8.4751 2.17604 -1.0379e-15
      vertex -8.4751 -2.17604 -1.0379e-15
    endloop
  endfacet
  facet normal 1.22465e-16 0 -1
    outer loop
      vertex -8.681 -1.09667 -1.06312e-15
      vertex -8.681 1.09667 -1.06312e-15
      vertex -8.4751 2.17604 -1.0379e-15
    endloop
  endfacet
  facet normal 1.22464e-16 0 -1
    outer loop
      vertex -8.681 1.09667 -1.06312e-15
      vertex -8.681 -1.09667 -1.06312e-15
      vertex -8.75 0 -1.07157e-15
    endloop
  endfacet
  facet normal 0.481754 0.876307 -0
    outer loop
      vertex 4.68848 7.38787 5.74174e-16
      vertex 3.72557 7.91724 10
      vertex 4.68848 7.38787 10
    endloop
  endfacet
  facet normal 0.481754 0.876307 0
    outer loop
      vertex 3.72557 7.91724 10
      vertex 4.68848 7.38787 5.74174e-16
      vertex 3.72557 7.91724 4.56251e-16
    endloop
  endfacet
  facet normal 0.24869 0.968583 -0
    outer loop
      vertex 2.7039 8.32174 3.31132e-16
      vertex 1.63959 8.59501 10
      vertex 2.7039 8.32174 10
    endloop
  endfacet
  facet normal 0.24869 0.968583 0
    outer loop
      vertex 1.63959 8.59501 10
      vertex 2.7039 8.32174 3.31132e-16
      vertex 1.63959 8.59501 2.00791e-16
    endloop
  endfacet
  facet normal -0 0 1
    outer loop
      vertex 5.69516 0.00827813 10
      vertex 8.75 0 10
      vertex 8.681 1.09667 10
    endloop
  endfacet
  facet normal 0 0 1
    outer loop
      vertex 5.65077 0.713858 10
      vertex 8.681 1.09667 10
      vertex 8.4751 2.17604 10
    endloop
  endfacet
  facet normal 0 0 1
    outer loop
      vertex 8.75 0 10
      vertex 5.69516 0.00827813 10
      vertex 5.69568 0 10
    endloop
  endfacet
  facet normal 0 0 1
    outer loop
      vertex 5.51418 1.42435 10
      vertex 8.4751 2.17604 10
      vertex 8.13554 3.22109 10
    endloop
  endfacet
  facet normal 0 0 1
    outer loop
      vertex 5.69516 -0.00827813 10
      vertex 8.75 0 10
      vertex 5.69568 0 10
    endloop
  endfacet
  facet normal 0 0 1
    outer loop
      vertex 5.29571 2.09672 10
      vertex 8.13554 3.22109 10
      vertex 7.66768 4.21534 10
    endloop
  endfacet
  facet normal 0 0 1
    outer loop
      vertex 8.75 0 10
      vertex 5.69516 -0.00827813 10
      vertex 8.681 -1.09667 10
    endloop
  endfacet
  facet normal 0 0 1
    outer loop
      vertex 4.99116 2.74391 10
      vertex 7.66768 4.21534 10
      vertex 7.0789 5.14312 10
    endloop
  endfacet
  facet normal -0 0 1
    outer loop
      vertex 5.65077 -0.713858 10
      vertex 8.681 -1.09667 10
      vertex 5.69516 -0.00827813 10
    endloop
  endfacet
  facet normal 0 0 1
    outer loop
      vertex 4.6079 3.34784 10
      vertex 7.0789 5.14312 10
      vertex 6.37848 5.98979 10
    endloop
  endfacet
  facet normal 0 0 1
    outer loop
      vertex 8.681 -1.09667 10
      vertex 5.65077 -0.713858 10
      vertex 8.4751 -2.17604 10
    endloop
  endfacet
  facet normal -0 0 1
    outer loop
      vertex 5.51674 -1.41646 10
      vertex 8.4751 -2.17604 10
      vertex 5.51829 -1.40831 10
    endloop
  endfacet
  facet normal -0 0 1
    outer loop
      vertex 5.51829 -1.40831 10
      vertex 8.4751 -2.17604 10
      vertex 5.65077 -0.713858 10
    endloop
  endfacet
  facet normal 0 0 1
    outer loop
      vertex 8.681 1.09667 10
      vertex 5.65077 0.713858 10
      vertex 5.69516 0.00827813 10
    endloop
  endfacet
  facet normal 0 0 1
    outer loop
      vertex 4.14592 3.90464 10
      vertex 6.37848 5.98979 10
      vertex 5.57746 6.74199 10
    endloop
  endfacet
  facet normal 0 0 1
    outer loop
      vertex 8.4751 2.17604 10
      vertex 5.51829 1.40831 10
      vertex 5.65077 0.713858 10
    endloop
  endfacet
  facet normal 0 0 1
    outer loop
      vertex 8.4751 2.17604 10
      vertex 5.51674 1.41646 10
      vertex 5.51829 1.40831 10
    endloop
  endfacet
  facet normal 0 0 1
    outer loop
      vertex 8.4751 2.17604 10
      vertex 5.51418 1.42435 10
      vertex 5.51674 1.41646 10
    endloop
  endfacet
  facet normal 0 0 1
    outer loop
      vertex 8.13554 3.22109 10
      vertex 5.29571 2.09672 10
      vertex 5.51418 1.42435 10
    endloop
  endfacet
  facet normal 0 0 1
    outer loop
      vertex 7.66768 4.21534 10
      vertex 4.99469 2.73641 10
      vertex 5.29571 2.09672 10
    endloop
  endfacet
  facet normal 0 0 1
    outer loop
      vertex 7.66768 4.21534 10
      vertex 4.99116 2.74391 10
      vertex 4.99469 2.73641 10
    endloop
  endfacet
  facet normal 0 0 1
    outer loop
      vertex 3.63056 4.3886 10
      vertex 5.57746 6.74199 10
      vertex 4.68848 7.38787 10
    endloop
  endfacet
  facet normal 0 0 1
    outer loop
      vertex 7.0789 5.14312 10
      vertex 4.61235 3.34083 10
      vertex 4.99116 2.74391 10
    endloop
  endfacet
  facet normal 0 0 1
    outer loop
      vertex 7.0789 5.14312 10
      vertex 4.6079 3.34784 10
      vertex 4.61235 3.34083 10
    endloop
  endfacet
  facet normal 0 0 1
    outer loop
      vertex 6.37848 5.98979 10
      vertex 4.15726 3.89257 10
      vertex 4.6079 3.34784 10
    endloop
  endfacet
  facet normal 0 0 1
    outer loop
      vertex 6.37848 5.98979 10
      vertex 4.15197 3.89896 10
      vertex 4.15726 3.89257 10
    endloop
  endfacet
  facet normal 0 0 1
    outer loop
      vertex 6.37848 5.98979 10
      vertex 4.14592 3.90464 10
      vertex 4.15197 3.89896 10
    endloop
  endfacet
  facet normal 0 0 1
    outer loop
      vertex 3.04463 4.81302 10
      vertex 4.68848 7.38787 10
      vertex 3.72557 7.91724 10
    endloop
  endfacet
  facet normal 0 0 1
    outer loop
      vertex 5.57746 6.74199 10
      vertex 3.63056 4.3886 10
      vertex 4.14592 3.90464 10
    endloop
  endfacet
  facet normal 0 0 1
    outer loop
      vertex 4.68848 7.38787 10
      vertex 3.05861 4.80415 10
      vertex 3.63056 4.3886 10
    endloop
  endfacet
  facet normal 0 0 1
    outer loop
      vertex 4.68848 7.38787 10
      vertex 3.0519 4.80902 10
      vertex 3.05861 4.80415 10
    endloop
  endfacet
  facet normal 0 0 1
    outer loop
      vertex 4.68848 7.38787 10
      vertex 3.04463 4.81302 10
      vertex 3.0519 4.80902 10
    endloop
  endfacet
  facet normal 0 0 1
    outer loop
      vertex 2.41739 5.15666 10
      vertex 3.72557 7.91724 10
      vertex 2.7039 8.32174 10
    endloop
  endfacet
  facet normal 0 0 1
    outer loop
      vertex 3.72557 7.91724 10
      vertex 2.4251 5.1536 10
      vertex 3.04463 4.81302 10
    endloop
  endfacet
  facet normal 0 0 1
    outer loop
      vertex 3.72557 7.91724 10
      vertex 2.41739 5.15666 10
      vertex 2.4251 5.1536 10
    endloop
  endfacet
  facet normal 0 0 1
    outer loop
      vertex 2.7039 8.32174 10
      vertex 1.76006 5.41691 10
      vertex 2.41739 5.15666 10
    endloop
  endfacet
  facet normal 0 0 1
    outer loop
      vertex 1.63959 8.59501 10
      vertex 1.76006 5.41691 10
      vertex 2.7039 8.32174 10
    endloop
  endfacet
  facet normal 0 0 1
    outer loop
      vertex 1.63959 8.59501 10
      vertex 1.0753 5.59273 10
      vertex 1.76006 5.41691 10
    endloop
  endfacet
  facet normal 0 0 1
    outer loop
      vertex 1.63959 8.59501 10
      vertex 1.06726 5.59479 10
      vertex 1.0753 5.59273 10
    endloop
  endfacet
  facet normal 0 0 1
    outer loop
      vertex 0.549417 8.73273 10
      vertex 1.06726 5.59479 10
      vertex 1.63959 8.59501 10
    endloop
  endfacet
  facet normal 0 0 1
    outer loop
      vertex 0.549417 8.73273 10
      vertex 0.365863 5.6834 10
      vertex 1.06726 5.59479 10
    endloop
  endfacet
  facet normal 0 0 1
    outer loop
      vertex 0.549417 8.73273 10
      vertex 0.357634 5.68444 10
      vertex 0.365863 5.6834 10
    endloop
  endfacet
  facet normal 0 0 1
    outer loop
      vertex 0.549417 8.73273 10
      vertex -0.357634 5.68444 10
      vertex 0.357634 5.68444 10
    endloop
  endfacet
  facet normal -0 0 1
    outer loop
      vertex -0.549417 8.73273 10
      vertex -0.357634 5.68444 10
      vertex 0.549417 8.73273 10
    endloop
  endfacet
  facet normal 0 0 1
    outer loop
      vertex -0.357634 5.68444 10
      vertex -0.549417 8.73273 10
      vertex -0.365863 5.6834 10
    endloop
  endfacet
  facet normal 0 0 1
    outer loop
      vertex -0.549417 8.73273 10
      vertex -1.06726 5.59479 10
      vertex -0.365863 5.6834 10
    endloop
  endfacet
  facet normal -0 0 1
    outer loop
      vertex -1.63959 8.59501 10
      vertex -1.06726 5.59479 10
      vertex -0.549417 8.73273 10
    endloop
  endfacet
  facet normal 0 0 1
    outer loop
      vertex -1.06726 5.59479 10
      vertex -1.63959 8.59501 10
      vertex -1.0753 5.59273 10
    endloop
  endfacet
  facet normal 0 0 1
    outer loop
      vertex -1.63959 8.59501 10
      vertex -1.76006 5.41691 10
      vertex -1.0753 5.59273 10
    endloop
  endfacet
  facet normal -0 0 1
    outer loop
      vertex -2.7039 8.32174 10
      vertex -1.76006 5.41691 10
      vertex -1.63959 8.59501 10
    endloop
  endfacet
  facet normal 0 0 1
    outer loop
      vertex -1.76006 5.41691 10
      vertex -2.7039 8.32174 10
      vertex -2.41739 5.15666 10
    endloop
  endfacet
  facet normal -0 0 1
    outer loop
      vertex -3.72557 7.91724 10
      vertex -2.41739 5.15666 10
      vertex -2.7039 8.32174 10
    endloop
  endfacet
  facet normal 0 0 1
    outer loop
      vertex -2.41739 5.15666 10
      vertex -3.72557 7.91724 10
      vertex -2.4251 5.1536 10
    endloop
  endfacet
  facet normal 0 0 1
    outer loop
      vertex -2.4251 5.1536 10
      vertex -3.72557 7.91724 10
      vertex -3.04463 4.81302 10
    endloop
  endfacet
  facet normal -0 0 1
    outer loop
      vertex -4.68848 7.38787 10
      vertex -3.04463 4.81302 10
      vertex -3.72557 7.91724 10
    endloop
  endfacet
  facet normal 0 0 1
    outer loop
      vertex -3.04463 4.81302 10
      vertex -4.68848 7.38787 10
      vertex -3.0519 4.80902 10
    endloop
  endfacet
  facet normal 0 0 1
    outer loop
      vertex -3.0519 4.80902 10
      vertex -4.68848 7.38787 10
      vertex -3.05861 4.80415 10
    endloop
  endfacet
  facet normal 0 0 1
    outer loop
      vertex -3.05861 4.80415 10
      vertex -4.68848 7.38787 10
      vertex -3.63056 4.3886 10
    endloop
  endfacet
  facet normal -0 0 1
    outer loop
      vertex -5.57746 6.74199 10
      vertex -3.63056 4.3886 10
      vertex -4.68848 7.38787 10
    endloop
  endfacet
  facet normal 0 0 1
    outer loop
      vertex -3.63056 4.3886 10
      vertex -5.57746 6.74199 10
      vertex -4.14592 3.90464 10
    endloop
  endfacet
  facet normal -0 0 1
    outer loop
      vertex -6.37848 5.98979 10
      vertex -4.14592 3.90464 10
      vertex -5.57746 6.74199 10
    endloop
  endfacet
  facet normal 0 0 1
    outer loop
      vertex -4.14592 3.90464 10
      vertex -6.37848 5.98979 10
      vertex -4.15197 3.89896 10
    endloop
  endfacet
  facet normal 0 0 1
    outer loop
      vertex -4.15197 3.89896 10
      vertex -6.37848 5.98979 10
      vertex -4.15726 3.89257 10
    endloop
  endfacet
  facet normal 0 0 1
    outer loop
      vertex -4.15726 3.89257 10
      vertex -6.37848 5.98979 10
      vertex -4.6079 3.34784 10
    endloop
  endfacet
  facet normal -0 0 1
    outer loop
      vertex -7.0789 5.14312 10
      vertex -4.6079 3.34784 10
      vertex -6.37848 5.98979 10
    endloop
  endfacet
  facet normal 0 0 1
    outer loop
      vertex -4.6079 3.34784 10
      vertex -7.0789 5.14312 10
      vertex -4.61235 3.34083 10
    endloop
  endfacet
  facet normal 0 0 1
    outer loop
      vertex -4.61235 3.34083 10
      vertex -7.0789 5.14312 10
      vertex -4.99116 2.74391 10
    endloop
  endfacet
  facet normal -0 0 1
    outer loop
      vertex -7.66768 4.21534 10
      vertex -4.99116 2.74391 10
      vertex -7.0789 5.14312 10
    endloop
  endfacet
  facet normal 0 0 1
    outer loop
      vertex -4.99116 2.74391 10
      vertex -7.66768 4.21534 10
      vertex -4.99469 2.73641 10
    endloop
  endfacet
  facet normal 0 0 1
    outer loop
      vertex -4.99469 2.73641 10
      vertex -7.66768 4.21534 10
      vertex -5.29571 2.09672 10
    endloop
  endfacet
  facet normal -0 0 1
    outer loop
      vertex -8.13554 3.22109 10
      vertex -5.29571 2.09672 10
      vertex -7.66768 4.21534 10
    endloop
  endfacet
  facet normal 0 0 1
    outer loop
      vertex -5.29571 2.09672 10
      vertex -8.13554 3.22109 10
      vertex -5.51418 1.42435 10
    endloop
  endfacet
  facet normal -0 0 1
    outer loop
      vertex -8.4751 2.17604 10
      vertex -5.51418 1.42435 10
      vertex -8.13554 3.22109 10
    endloop
  endfacet
  facet normal 0 0 1
    outer loop
      vertex -5.51418 1.42435 10
      vertex -8.4751 2.17604 10
      vertex -5.51674 1.41646 10
    endloop
  endfacet
  facet normal -0 0 1
    outer loop
      vertex 5.51418 -1.42435 10
      vertex 8.4751 -2.17604 10
      vertex 5.51674 -1.41646 10
    endloop
  endfacet
  facet normal 0 0 1
    outer loop
      vertex 8.4751 -2.17604 10
      vertex 5.51418 -1.42435 10
      vertex 8.13554 -3.22109 10
    endloop
  endfacet
  facet normal -0 0 1
    outer loop
      vertex 5.29571 -2.09672 10
      vertex 8.13554 -3.22109 10
      vertex 5.51418 -1.42435 10
    endloop
  endfacet
  facet normal 0 0 1
    outer loop
      vertex 8.13554 -3.22109 10
      vertex 5.29571 -2.09672 10
      vertex 7.66768 -4.21534 10
    endloop
  endfacet
  facet normal -0 0 1
    outer loop
      vertex 4.99469 -2.73641 10
      vertex 7.66768 -4.21534 10
      vertex 5.29571 -2.09672 10
    endloop
  endfacet
  facet normal -0 0 1
    outer loop
      vertex 4.99116 -2.74391 10
      vertex 7.66768 -4.21534 10
      vertex 4.99469 -2.73641 10
    endloop
  endfacet
  facet normal 0 0 1
    outer loop
      vertex 7.66768 -4.21534 10
      vertex 4.99116 -2.74391 10
      vertex 7.0789 -5.14312 10
    endloop
  endfacet
  facet normal -0 0 1
    outer loop
      vertex 4.61235 -3.34083 10
      vertex 7.0789 -5.14312 10
      vertex 4.99116 -2.74391 10
    endloop
  endfacet
  facet normal -0 0 1
    outer loop
      vertex 4.6079 -3.34784 10
      vertex 7.0789 -5.14312 10
      vertex 4.61235 -3.34083 10
    endloop
  endfacet
  facet normal 0 0 1
    outer loop
      vertex 7.0789 -5.14312 10
      vertex 4.6079 -3.34784 10
      vertex 6.37848 -5.98979 10
    endloop
  endfacet
  facet normal -0 0 1
    outer loop
      vertex 4.15726 -3.89257 10
      vertex 6.37848 -5.98979 10
      vertex 4.6079 -3.34784 10
    endloop
  endfacet
  facet normal -0 0 1
    outer loop
      vertex 4.15197 -3.89896 10
      vertex 6.37848 -5.98979 10
      vertex 4.15726 -3.89257 10
    endloop
  endfacet
  facet normal -0 0 1
    outer loop
      vertex 4.14592 -3.90464 10
      vertex 6.37848 -5.98979 10
      vertex 4.15197 -3.89896 10
    endloop
  endfacet
  facet normal 0 0 1
    outer loop
      vertex 6.37848 -5.98979 10
      vertex 4.14592 -3.90464 10
      vertex 5.57746 -6.74199 10
    endloop
  endfacet
  facet normal -0 0 1
    outer loop
      vertex 3.63056 -4.3886 10
      vertex 5.57746 -6.74199 10
      vertex 4.14592 -3.90464 10
    endloop
  endfacet
  facet normal 0 0 1
    outer loop
      vertex 5.57746 -6.74199 10
      vertex 3.63056 -4.3886 10
      vertex 4.68848 -7.38787 10
    endloop
  endfacet
  facet normal -0 0 1
    outer loop
      vertex 3.05861 -4.80415 10
      vertex 4.68848 -7.38787 10
      vertex 3.63056 -4.3886 10
    endloop
  endfacet
  facet normal -0 0 1
    outer loop
      vertex 3.0519 -4.80902 10
      vertex 4.68848 -7.38787 10
      vertex 3.05861 -4.80415 10
    endloop
  endfacet
  facet normal -0 0 1
    outer loop
      vertex 3.04463 -4.81302 10
      vertex 4.68848 -7.38787 10
      vertex 3.0519 -4.80902 10
    endloop
  endfacet
  facet normal 0 0 1
    outer loop
      vertex 4.68848 -7.38787 10
      vertex 3.04463 -4.81302 10
      vertex 3.72557 -7.91724 10
    endloop
  endfacet
  facet normal -0 0 1
    outer loop
      vertex 2.4251 -5.1536 10
      vertex 3.72557 -7.91724 10
      vertex 3.04463 -4.81302 10
    endloop
  endfacet
  facet normal -0 0 1
    outer loop
      vertex 2.41739 -5.15666 10
      vertex 3.72557 -7.91724 10
      vertex 2.4251 -5.1536 10
    endloop
  endfacet
  facet normal 0 0 1
    outer loop
      vertex 3.72557 -7.91724 10
      vertex 2.41739 -5.15666 10
      vertex 2.7039 -8.32174 10
    endloop
  endfacet
  facet normal -0 0 1
    outer loop
      vertex 1.76006 -5.41691 10
      vertex 2.7039 -8.32174 10
      vertex 2.41739 -5.15666 10
    endloop
  endfacet
  facet normal 0 0 1
    outer loop
      vertex 1.76006 -5.41691 10
      vertex 1.63959 -8.59501 10
      vertex 2.7039 -8.32174 10
    endloop
  endfacet
  facet normal -0 0 1
    outer loop
      vertex 1.0753 -5.59273 10
      vertex 1.63959 -8.59501 10
      vertex 1.76006 -5.41691 10
    endloop
  endfacet
  facet normal -0 0 1
    outer loop
      vertex 1.06726 -5.59479 10
      vertex 1.63959 -8.59501 10
      vertex 1.0753 -5.59273 10
    endloop
  endfacet
  facet normal 0 0 1
    outer loop
      vertex 1.06726 -5.59479 10
      vertex 0.549417 -8.73273 10
      vertex 1.63959 -8.59501 10
    endloop
  endfacet
  facet normal -0 0 1
    outer loop
      vertex 0.365863 -5.6834 10
      vertex 0.549417 -8.73273 10
      vertex 1.06726 -5.59479 10
    endloop
  endfacet
  facet normal -0 0 1
    outer loop
      vertex 0.357634 -5.68444 10
      vertex 0.549417 -8.73273 10
      vertex 0.365863 -5.6834 10
    endloop
  endfacet
  facet normal -0 0 1
    outer loop
      vertex -0.357634 -5.68444 10
      vertex 0.549417 -8.73273 10
      vertex 0.357634 -5.68444 10
    endloop
  endfacet
  facet normal 0 0 1
    outer loop
      vertex -0.549417 -8.73273 10
      vertex -0.357634 -5.68444 10
      vertex -0.365863 -5.6834 10
    endloop
  endfacet
  facet normal 0 0 1
    outer loop
      vertex -0.357634 -5.68444 10
      vertex -0.549417 -8.73273 10
      vertex 0.549417 -8.73273 10
    endloop
  endfacet
  facet normal 0 0 1
    outer loop
      vertex -1.06726 -5.59479 10
      vertex -0.549417 -8.73273 10
      vertex -0.365863 -5.6834 10
    endloop
  endfacet
  facet normal 0 0 1
    outer loop
      vertex -1.63959 -8.59501 10
      vertex -1.06726 -5.59479 10
      vertex -1.0753 -5.59273 10
    endloop
  endfacet
  facet normal 0 0 1
    outer loop
      vertex -1.06726 -5.59479 10
      vertex -1.63959 -8.59501 10
      vertex -0.549417 -8.73273 10
    endloop
  endfacet
  facet normal 0 0 1
    outer loop
      vertex -1.76006 -5.41691 10
      vertex -1.63959 -8.59501 10
      vertex -1.0753 -5.59273 10
    endloop
  endfacet
  facet normal 0 0 1
    outer loop
      vertex -2.7039 -8.32174 10
      vertex -1.76006 -5.41691 10
      vertex -2.41739 -5.15666 10
    endloop
  endfacet
  facet normal 0 0 1
    outer loop
      vertex -3.72557 -7.91724 10
      vertex -2.41739 -5.15666 10
      vertex -2.4251 -5.1536 10
    endloop
  endfacet
  facet normal 0 0 1
    outer loop
      vertex -1.76006 -5.41691 10
      vertex -2.7039 -8.32174 10
      vertex -1.63959 -8.59501 10
    endloop
  endfacet
  facet normal 0 0 1
    outer loop
      vertex -3.72557 -7.91724 10
      vertex -2.4251 -5.1536 10
      vertex -3.04463 -4.81302 10
    endloop
  endfacet
  facet normal 0 0 1
    outer loop
      vertex -4.68848 -7.38787 10
      vertex -3.04463 -4.81302 10
      vertex -3.0519 -4.80902 10
    endloop
  endfacet
  facet normal 0 0 1
    outer loop
      vertex -4.68848 -7.38787 10
      vertex -3.0519 -4.80902 10
      vertex -3.05861 -4.80415 10
    endloop
  endfacet
  facet normal 0 0 1
    outer loop
      vertex -4.68848 -7.38787 10
      vertex -3.05861 -4.80415 10
      vertex -3.63056 -4.3886 10
    endloop
  endfacet
  facet normal 0 0 1
    outer loop
      vertex -2.41739 -5.15666 10
      vertex -3.72557 -7.91724 10
      vertex -2.7039 -8.32174 10
    endloop
  endfacet
  facet normal 0 0 1
    outer loop
      vertex -5.57746 -6.74199 10
      vertex -3.63056 -4.3886 10
      vertex -4.14592 -3.90464 10
    endloop
  endfacet
  facet normal 0 0 1
    outer loop
      vertex -6.37848 -5.98979 10
      vertex -4.14592 -3.90464 10
      vertex -4.15197 -3.89896 10
    endloop
  endfacet
  facet normal 0 0 1
    outer loop
      vertex -6.37848 -5.98979 10
      vertex -4.15197 -3.89896 10
      vertex -4.15726 -3.89257 10
    endloop
  endfacet
  facet normal 0 0 1
    outer loop
      vertex -6.37848 -5.98979 10
      vertex -4.15726 -3.89257 10
      vertex -4.6079 -3.34784 10
    endloop
  endfacet
  facet normal 0 0 1
    outer loop
      vertex -7.0789 -5.14312 10
      vertex -4.6079 -3.34784 10
      vertex -4.61235 -3.34083 10
    endloop
  endfacet
  facet normal 0 0 1
    outer loop
      vertex -3.04463 -4.81302 10
      vertex -4.68848 -7.38787 10
      vertex -3.72557 -7.91724 10
    endloop
  endfacet
  facet normal 0 0 1
    outer loop
      vertex -7.0789 -5.14312 10
      vertex -4.61235 -3.34083 10
      vertex -4.99116 -2.74391 10
    endloop
  endfacet
  facet normal 0 0 1
    outer loop
      vertex -7.66768 -4.21534 10
      vertex -4.99116 -2.74391 10
      vertex -4.99469 -2.73641 10
    endloop
  endfacet
  facet normal 0 0 1
    outer loop
      vertex -7.66768 -4.21534 10
      vertex -4.99469 -2.73641 10
      vertex -5.29571 -2.09672 10
    endloop
  endfacet
  facet normal 0 0 1
    outer loop
      vertex -8.13554 -3.22109 10
      vertex -5.29571 -2.09672 10
      vertex -5.51418 -1.42435 10
    endloop
  endfacet
  facet normal 0 0 1
    outer loop
      vertex -8.4751 -2.17604 10
      vertex -5.51418 -1.42435 10
      vertex -5.51674 -1.41646 10
    endloop
  endfacet
  facet normal 0 0 1
    outer loop
      vertex -8.4751 -2.17604 10
      vertex -5.51674 -1.41646 10
      vertex -5.51829 -1.40831 10
    endloop
  endfacet
  facet normal 0 0 1
    outer loop
      vertex -3.63056 -4.3886 10
      vertex -5.57746 -6.74199 10
      vertex -4.68848 -7.38787 10
    endloop
  endfacet
  facet normal 0 0 1
    outer loop
      vertex -8.4751 -2.17604 10
      vertex -5.51829 -1.40831 10
      vertex -5.65077 -0.713858 10
    endloop
  endfacet
  facet normal 0 0 1
    outer loop
      vertex -8.681 -1.09667 10
      vertex -5.65077 -0.713858 10
      vertex -5.69516 -0.00827813 10
    endloop
  endfacet
  facet normal -0 0 1
    outer loop
      vertex -8.75 0 10
      vertex -5.69516 -0.00827813 10
      vertex -5.69568 0 10
    endloop
  endfacet
  facet normal 0 0 1
    outer loop
      vertex -5.51674 1.41646 10
      vertex -8.4751 2.17604 10
      vertex -5.51829 1.40831 10
    endloop
  endfacet
  facet normal 0 0 1
    outer loop
      vertex -4.14592 -3.90464 10
      vertex -6.37848 -5.98979 10
      vertex -5.57746 -6.74199 10
    endloop
  endfacet
  facet normal 0 0 1
    outer loop
      vertex -5.51829 1.40831 10
      vertex -8.4751 2.17604 10
      vertex -5.65077 0.713858 10
    endloop
  endfacet
  facet normal 0 0 1
    outer loop
      vertex -4.6079 -3.34784 10
      vertex -7.0789 -5.14312 10
      vertex -6.37848 -5.98979 10
    endloop
  endfacet
  facet normal -0 0 1
    outer loop
      vertex -8.681 1.09667 10
      vertex -5.65077 0.713858 10
      vertex -8.4751 2.17604 10
    endloop
  endfacet
  facet normal 0 0 1
    outer loop
      vertex -4.99116 -2.74391 10
      vertex -7.66768 -4.21534 10
      vertex -7.0789 -5.14312 10
    endloop
  endfacet
  facet normal 0 0 1
    outer loop
      vertex -5.65077 0.713858 10
      vertex -8.681 1.09667 10
      vertex -5.69516 0.00827813 10
    endloop
  endfacet
  facet normal 0 0 1
    outer loop
      vertex -5.29571 -2.09672 10
      vertex -8.13554 -3.22109 10
      vertex -7.66768 -4.21534 10
    endloop
  endfacet
  facet normal 0 0 1
    outer loop
      vertex -8.75 0 10
      vertex -5.69516 0.00827813 10
      vertex -8.681 1.09667 10
    endloop
  endfacet
  facet normal 0 0 1
    outer loop
      vertex -5.51418 -1.42435 10
      vertex -8.4751 -2.17604 10
      vertex -8.13554 -3.22109 10
    endloop
  endfacet
  facet normal 0 0 1
    outer loop
      vertex -5.69516 0.00827813 10
      vertex -8.75 0 10
      vertex -5.69568 0 10
    endloop
  endfacet
  facet normal 0 0 1
    outer loop
      vertex -5.65077 -0.713858 10
      vertex -8.681 -1.09667 10
      vertex -8.4751 -2.17604 10
    endloop
  endfacet
  facet normal 0 0 1
    outer loop
      vertex -5.69516 -0.00827813 10
      vertex -8.75 0 10
      vertex -8.681 -1.09667 10
    endloop
  endfacet
  facet normal -0.125334 -0.992115 0
    outer loop
      vertex -1.63959 -8.59501 10
      vertex -0.549417 -8.73273 -6.72841e-17
      vertex -0.549417 -8.73273 10
    endloop
  endfacet
  facet normal -0.125334 -0.992115 0
    outer loop
      vertex -0.549417 -8.73273 -6.72841e-17
      vertex -1.63959 -8.59501 10
      vertex -1.63959 -8.59501 -2.00791e-16
    endloop
  endfacet
  facet normal -0.368124 -0.929777 0
    outer loop
      vertex -3.72557 -7.91724 10
      vertex -2.7039 -8.32174 -3.31132e-16
      vertex -2.7039 -8.32174 10
    endloop
  endfacet
  facet normal -0.368124 -0.929777 0
    outer loop
      vertex -2.7039 -8.32174 -3.31132e-16
      vertex -3.72557 -7.91724 10
      vertex -3.72557 -7.91724 -4.56251e-16
    endloop
  endfacet
  facet normal -0.951056 0.309017 0
    outer loop
      vertex -8.4751 2.17604 -1.0379e-15
      vertex -8.13554 3.22109 10
      vertex -8.13554 3.22109 -9.96317e-16
    endloop
  endfacet
  facet normal -0.951056 0.309017 0
    outer loop
      vertex -8.13554 3.22109 10
      vertex -8.4751 2.17604 -1.0379e-15
      vertex -8.4751 2.17604 10
    endloop
  endfacet
  facet normal -0.982287 0.187382 0
    outer loop
      vertex -8.681 1.09667 -1.06312e-15
      vertex -8.4751 2.17604 10
      vertex -8.4751 2.17604 -1.0379e-15
    endloop
  endfacet
  facet normal -0.982287 0.187382 0
    outer loop
      vertex -8.4751 2.17604 10
      vertex -8.681 1.09667 -1.06312e-15
      vertex -8.681 1.09667 10
    endloop
  endfacet
  facet normal -0.770513 0.637424 0
    outer loop
      vertex -7.0789 5.14312 -8.66915e-16
      vertex -6.37848 5.98979 10
      vertex -6.37848 5.98979 -7.81138e-16
    endloop
  endfacet
  facet normal -0.770513 0.637424 0
    outer loop
      vertex -6.37848 5.98979 10
      vertex -7.0789 5.14312 -8.66915e-16
      vertex -7.0789 5.14312 10
    endloop
  endfacet
  facet normal -0.844328 0.535826 0
    outer loop
      vertex -7.66768 4.21534 -9.3902e-16
      vertex -7.0789 5.14312 10
      vertex -7.0789 5.14312 -8.66915e-16
    endloop
  endfacet
  facet normal -0.844328 0.535826 0
    outer loop
      vertex -7.0789 5.14312 10
      vertex -7.66768 4.21534 -9.3902e-16
      vertex -7.66768 4.21534 10
    endloop
  endfacet
  facet normal -0.24869 0.968583 0
    outer loop
      vertex -1.63959 8.59501 -2.00791e-16
      vertex -2.7039 8.32174 10
      vertex -1.63959 8.59501 10
    endloop
  endfacet
  facet normal -0.24869 0.968583 0
    outer loop
      vertex -2.7039 8.32174 10
      vertex -1.63959 8.59501 -2.00791e-16
      vertex -2.7039 8.32174 -3.31132e-16
    endloop
  endfacet
  facet normal -0.125334 0.992115 0
    outer loop
      vertex -0.549417 8.73273 -6.72841e-17
      vertex -1.63959 8.59501 10
      vertex -0.549417 8.73273 10
    endloop
  endfacet
  facet normal -0.125334 0.992115 0
    outer loop
      vertex -1.63959 8.59501 10
      vertex -0.549417 8.73273 -6.72841e-17
      vertex -1.63959 8.59501 -2.00791e-16
    endloop
  endfacet
  facet normal -0.587786 0.809017 0
    outer loop
      vertex -4.68848 7.38787 -5.74174e-16
      vertex -5.57746 6.74199 10
      vertex -4.68848 7.38787 10
    endloop
  endfacet
  facet normal -0.587786 0.809017 0
    outer loop
      vertex -5.57746 6.74199 10
      vertex -4.68848 7.38787 -5.74174e-16
      vertex -5.57746 6.74199 -6.83042e-16
    endloop
  endfacet
  facet normal 0.844328 0.535826 0
    outer loop
      vertex 7.66768 4.21534 10
      vertex 7.0789 5.14312 8.66915e-16
      vertex 7.0789 5.14312 10
    endloop
  endfacet
  facet normal 0.844328 0.535826 0
    outer loop
      vertex 7.0789 5.14312 8.66915e-16
      vertex 7.66768 4.21534 10
      vertex 7.66768 4.21534 9.3902e-16
    endloop
  endfacet
  facet normal 0.951056 0.309017 0
    outer loop
      vertex 8.4751 2.17604 10
      vertex 8.13554 3.22109 9.96317e-16
      vertex 8.13554 3.22109 10
    endloop
  endfacet
  facet normal 0.951056 0.309017 0
    outer loop
      vertex 8.13554 3.22109 9.96317e-16
      vertex 8.4751 2.17604 10
      vertex 8.4751 2.17604 1.0379e-15
    endloop
  endfacet
  facet normal 0.982287 0.187382 0
    outer loop
      vertex 8.681 1.09667 10
      vertex 8.4751 2.17604 1.0379e-15
      vertex 8.4751 2.17604 10
    endloop
  endfacet
  facet normal 0.982287 0.187382 0
    outer loop
      vertex 8.4751 2.17604 1.0379e-15
      vertex 8.681 1.09667 10
      vertex 8.681 1.09667 1.06312e-15
    endloop
  endfacet
  facet normal 0.587786 0.809017 -0
    outer loop
      vertex 5.57746 6.74199 6.83042e-16
      vertex 4.68848 7.38787 10
      vertex 5.57746 6.74199 10
    endloop
  endfacet
  facet normal 0.587786 0.809017 0
    outer loop
      vertex 4.68848 7.38787 10
      vertex 5.57746 6.74199 6.83042e-16
      vertex 4.68848 7.38787 5.74174e-16
    endloop
  endfacet
  facet normal 0.125334 0.992115 -0
    outer loop
      vertex 1.63959 8.59501 2.00791e-16
      vertex 0.549417 8.73273 10
      vertex 1.63959 8.59501 10
    endloop
  endfacet
  facet normal 0.125334 0.992115 0
    outer loop
      vertex 0.549417 8.73273 10
      vertex 1.63959 8.59501 2.00791e-16
      vertex 0.549417 8.73273 6.72841e-17
    endloop
  endfacet
  facet normal -0.998027 -0.0627906 0
    outer loop
      vertex -8.681 -1.09667 -1.06312e-15
      vertex -8.75 0 10
      vertex -8.75 0 -1.07157e-15
    endloop
  endfacet
  facet normal -0.998027 -0.0627906 0
    outer loop
      vertex -8.75 0 10
      vertex -8.681 -1.09667 -1.06312e-15
      vertex -8.681 -1.09667 10
    endloop
  endfacet
  facet normal -0.982287 -0.187382 0
    outer loop
      vertex -8.4751 -2.17604 -1.0379e-15
      vertex -8.681 -1.09667 10
      vertex -8.681 -1.09667 -1.06312e-15
    endloop
  endfacet
  facet normal -0.982287 -0.187382 0
    outer loop
      vertex -8.681 -1.09667 10
      vertex -8.4751 -2.17604 -1.0379e-15
      vertex -8.4751 -2.17604 10
    endloop
  endfacet
  facet normal 0.684547 -0.728969 0
    outer loop
      vertex 5.57746 -6.74199 10
      vertex 6.37848 -5.98979 7.81138e-16
      vertex 6.37848 -5.98979 10
    endloop
  endfacet
  facet normal 0.684547 -0.728969 0
    outer loop
      vertex 6.37848 -5.98979 7.81138e-16
      vertex 5.57746 -6.74199 10
      vertex 5.57746 -6.74199 6.83042e-16
    endloop
  endfacet
  facet normal 0.904827 -0.425779 0
    outer loop
      vertex 7.66768 -4.21534 10
      vertex 8.13554 -3.22109 9.96317e-16
      vertex 8.13554 -3.22109 10
    endloop
  endfacet
  facet normal 0.904827 -0.425779 0
    outer loop
      vertex 8.13554 -3.22109 9.96317e-16
      vertex 7.66768 -4.21534 10
      vertex 7.66768 -4.21534 9.3902e-16
    endloop
  endfacet
  facet normal 0.770513 -0.637424 0
    outer loop
      vertex 6.37848 -5.98979 10
      vertex 7.0789 -5.14312 8.66915e-16
      vertex 7.0789 -5.14312 10
    endloop
  endfacet
  facet normal 0.770513 -0.637424 0
    outer loop
      vertex 7.0789 -5.14312 8.66915e-16
      vertex 6.37848 -5.98979 10
      vertex 6.37848 -5.98979 7.81138e-16
    endloop
  endfacet
  facet normal -0.481754 -0.876307 0
    outer loop
      vertex -4.68848 -7.38787 10
      vertex -3.72557 -7.91724 -4.56251e-16
      vertex -3.72557 -7.91724 10
    endloop
  endfacet
  facet normal -0.481754 -0.876307 0
    outer loop
      vertex -3.72557 -7.91724 -4.56251e-16
      vertex -4.68848 -7.38787 10
      vertex -4.68848 -7.38787 -5.74174e-16
    endloop
  endfacet
  facet normal -0.904827 -0.425779 0
    outer loop
      vertex -7.66768 -4.21534 -9.3902e-16
      vertex -8.13554 -3.22109 10
      vertex -8.13554 -3.22109 -9.96317e-16
    endloop
  endfacet
  facet normal -0.904827 -0.425779 0
    outer loop
      vertex -8.13554 -3.22109 10
      vertex -7.66768 -4.21534 -9.3902e-16
      vertex -7.66768 -4.21534 10
    endloop
  endfacet
  facet normal 0.368124 -0.929777 0
    outer loop
      vertex 2.7039 -8.32174 10
      vertex 3.72557 -7.91724 4.56251e-16
      vertex 3.72557 -7.91724 10
    endloop
  endfacet
  facet normal 0.368124 -0.929777 0
    outer loop
      vertex 3.72557 -7.91724 4.56251e-16
      vertex 2.7039 -8.32174 10
      vertex 2.7039 -8.32174 3.31132e-16
    endloop
  endfacet
  facet normal 0.982287 -0.187382 0
    outer loop
      vertex 8.4751 -2.17604 10
      vertex 8.681 -1.09667 1.06312e-15
      vertex 8.681 -1.09667 10
    endloop
  endfacet
  facet normal 0.982287 -0.187382 0
    outer loop
      vertex 8.681 -1.09667 1.06312e-15
      vertex 8.4751 -2.17604 10
      vertex 8.4751 -2.17604 1.0379e-15
    endloop
  endfacet
  facet normal 0.998027 -0.0627906 0
    outer loop
      vertex 8.681 -1.09667 10
      vertex 8.75 0 1.07157e-15
      vertex 8.75 0 10
    endloop
  endfacet
  facet normal 0.998027 -0.0627906 0
    outer loop
      vertex 8.75 0 1.07157e-15
      vertex 8.681 -1.09667 10
      vertex 8.681 -1.09667 1.06312e-15
    endloop
  endfacet
  facet normal 0.951056 -0.309017 0
    outer loop
      vertex 8.13554 -3.22109 10
      vertex 8.4751 -2.17604 1.0379e-15
      vertex 8.4751 -2.17604 10
    endloop
  endfacet
  facet normal 0.951056 -0.309017 0
    outer loop
      vertex 8.4751 -2.17604 1.0379e-15
      vertex 8.13554 -3.22109 10
      vertex 8.13554 -3.22109 9.96317e-16
    endloop
  endfacet
  facet normal -0.587786 -0.809017 0
    outer loop
      vertex -5.57746 -6.74199 10
      vertex -4.68848 -7.38787 -5.74174e-16
      vertex -4.68848 -7.38787 10
    endloop
  endfacet
  facet normal -0.587786 -0.809017 0
    outer loop
      vertex -4.68848 -7.38787 -5.74174e-16
      vertex -5.57746 -6.74199 10
      vertex -5.57746 -6.74199 -6.83042e-16
    endloop
  endfacet
  facet normal -0.24869 -0.968583 0
    outer loop
      vertex -2.7039 -8.32174 10
      vertex -1.63959 -8.59501 -2.00791e-16
      vertex -1.63959 -8.59501 10
    endloop
  endfacet
  facet normal -0.24869 -0.968583 0
    outer loop
      vertex -1.63959 -8.59501 -2.00791e-16
      vertex -2.7039 -8.32174 10
      vertex -2.7039 -8.32174 -3.31132e-16
    endloop
  endfacet
  facet normal -0.844328 -0.535826 0
    outer loop
      vertex -7.0789 -5.14312 -8.66915e-16
      vertex -7.66768 -4.21534 10
      vertex -7.66768 -4.21534 -9.3902e-16
    endloop
  endfacet
  facet normal -0.844328 -0.535826 0
    outer loop
      vertex -7.66768 -4.21534 10
      vertex -7.0789 -5.14312 -8.66915e-16
      vertex -7.0789 -5.14312 10
    endloop
  endfacet
  facet normal -0.770513 -0.637424 0
    outer loop
      vertex -6.37848 -5.98979 -7.81138e-16
      vertex -7.0789 -5.14312 10
      vertex -7.0789 -5.14312 -8.66915e-16
    endloop
  endfacet
  facet normal -0.770513 -0.637424 0
    outer loop
      vertex -7.0789 -5.14312 10
      vertex -6.37848 -5.98979 -7.81138e-16
      vertex -6.37848 -5.98979 10
    endloop
  endfacet
  facet normal -0.951056 -0.309017 0
    outer loop
      vertex -8.13554 -3.22109 -9.96317e-16
      vertex -8.4751 -2.17604 10
      vertex -8.4751 -2.17604 -1.0379e-15
    endloop
  endfacet
  facet normal -0.951056 -0.309017 0
    outer loop
      vertex -8.4751 -2.17604 10
      vertex -8.13554 -3.22109 -9.96317e-16
      vertex -8.13554 -3.22109 10
    endloop
  endfacet
  facet normal 0.125334 -0.992115 0
    outer loop
      vertex 0.549417 -8.73273 10
      vertex 1.63959 -8.59501 2.00791e-16
      vertex 1.63959 -8.59501 10
    endloop
  endfacet
  facet normal 0.125334 -0.992115 0
    outer loop
      vertex 1.63959 -8.59501 2.00791e-16
      vertex 0.549417 -8.73273 10
      vertex 0.549417 -8.73273 6.72841e-17
    endloop
  endfacet
  facet normal 0.481754 -0.876307 0
    outer loop
      vertex 3.72557 -7.91724 10
      vertex 4.68848 -7.38787 5.74174e-16
      vertex 4.68848 -7.38787 10
    endloop
  endfacet
  facet normal 0.481754 -0.876307 0
    outer loop
      vertex 4.68848 -7.38787 5.74174e-16
      vertex 3.72557 -7.91724 10
      vertex 3.72557 -7.91724 4.56251e-16
    endloop
  endfacet
  facet normal 0.587786 -0.809017 0
    outer loop
      vertex 4.68848 -7.38787 10
      vertex 5.57746 -6.74199 6.83042e-16
      vertex 5.57746 -6.74199 10
    endloop
  endfacet
  facet normal 0.587786 -0.809017 0
    outer loop
      vertex 5.57746 -6.74199 6.83042e-16
      vertex 4.68848 -7.38787 10
      vertex 4.68848 -7.38787 5.74174e-16
    endloop
  endfacet
  facet normal 0.844328 -0.535826 0
    outer loop
      vertex 7.0789 -5.14312 10
      vertex 7.66768 -4.21534 9.3902e-16
      vertex 7.66768 -4.21534 10
    endloop
  endfacet
  facet normal 0.844328 -0.535826 0
    outer loop
      vertex 7.66768 -4.21534 9.3902e-16
      vertex 7.0789 -5.14312 10
      vertex 7.0789 -5.14312 8.66915e-16
    endloop
  endfacet
  facet normal -0.684547 -0.728969 0
    outer loop
      vertex -6.37848 -5.98979 10
      vertex -5.57746 -6.74199 -6.83042e-16
      vertex -5.57746 -6.74199 10
    endloop
  endfacet
  facet normal -0.684547 -0.728969 0
    outer loop
      vertex -5.57746 -6.74199 -6.83042e-16
      vertex -6.37848 -5.98979 10
      vertex -6.37848 -5.98979 -7.81138e-16
    endloop
  endfacet
  facet normal 0.24869 -0.968583 0
    outer loop
      vertex 1.63959 -8.59501 10
      vertex 2.7039 -8.32174 3.31132e-16
      vertex 2.7039 -8.32174 10
    endloop
  endfacet
  facet normal 0.24869 -0.968583 0
    outer loop
      vertex 2.7039 -8.32174 3.31132e-16
      vertex 1.63959 -8.59501 10
      vertex 1.63959 -8.59501 2.00791e-16
    endloop
  endfacet
  facet normal 0.997101 -0.0627191 0.0430846
    outer loop
      vertex -5.35 0 2
      vertex -5.69516 0.00827813 10
      vertex -5.69568 0 10
    endloop
  endfacet
  facet normal 0.9971 -0.0627314 0.0430846
    outer loop
      vertex -5.69516 0.00827813 10
      vertex -5.35 0 2
      vertex -5.30781 0.670532 2
    endloop
  endfacet
  facet normal 0.9971 -0.0627327 0.0430845
    outer loop
      vertex -5.65077 0.713858 10
      vertex -5.69516 0.00827813 10
      vertex -5.30781 0.670532 2
    endloop
  endfacet
  facet normal -0.997101 0.0627191 0.0430846
    outer loop
      vertex 5.35 0 2
      vertex 5.69516 -0.00827813 10
      vertex 5.69568 0 10
    endloop
  endfacet
  facet normal -0.9971 0.0627314 0.0430846
    outer loop
      vertex 5.69516 -0.00827813 10
      vertex 5.35 0 2
      vertex 5.30781 -0.670532 2
    endloop
  endfacet
  facet normal 0.98138 -0.187181 0.0430846
    outer loop
      vertex -5.51829 1.40831 10
      vertex -5.18192 1.33049 2
      vertex -5.51674 1.41646 10
    endloop
  endfacet
  facet normal 0.981375 -0.187209 0.0430846
    outer loop
      vertex -5.18192 1.33049 2
      vertex -5.51829 1.40831 10
      vertex -5.30781 0.670532 2
    endloop
  endfacet
  facet normal 0.683911 -0.728292 0.0430845
    outer loop
      vertex -3.63056 4.3886 10
      vertex -4.14592 3.90464 10
      vertex -3.41022 4.12225 2
    endloop
  endfacet
  facet normal 0 0.999071 0.0430846
    outer loop
      vertex 0.335929 -5.33944 2
      vertex -0.357634 -5.68444 10
      vertex 0.357634 -5.68444 10
    endloop
  endfacet
  facet normal 0 0.999071 0.0430846
    outer loop
      vertex -0.357634 -5.68444 10
      vertex 0.335929 -5.33944 2
      vertex -0.335929 -5.33944 2
    endloop
  endfacet
  facet normal -0.125208 -0.991195 0.0430847
    outer loop
      vertex 0.335929 5.33944 2
      vertex 0.365863 5.6834 10
      vertex 0.357634 5.68444 10
    endloop
  endfacet
  facet normal -0.125216 -0.991194 0.0430846
    outer loop
      vertex 0.365863 5.6834 10
      vertex 0.335929 5.33944 2
      vertex 1.00249 5.25524 2
    endloop
  endfacet
  facet normal -0.769798 -0.636832 0.0430846
    outer loop
      vertex 4.15726 3.89257 10
      vertex 4.32824 3.14465 2
      vertex 4.6079 3.34784 10
    endloop
  endfacet
  facet normal -0.248465 -0.967682 0.0430846
    outer loop
      vertex 1.00249 5.25524 2
      vertex 1.0753 5.59273 10
      vertex 1.06726 5.59479 10
    endloop
  endfacet
  facet normal -0.248459 -0.967684 0.0430846
    outer loop
      vertex 1.0753 5.59273 10
      vertex 1.00249 5.25524 2
      vertex 1.65324 5.08815 2
    endloop
  endfacet
  facet normal -0.981375 0.187209 0.0430846
    outer loop
      vertex 5.18192 -1.33049 2
      vertex 5.51829 -1.40831 10
      vertex 5.30781 -0.670532 2
    endloop
  endfacet
  facet normal -0.98138 0.187181 0.0430846
    outer loop
      vertex 5.51829 -1.40831 10
      vertex 5.18192 -1.33049 2
      vertex 5.51674 -1.41646 10
    endloop
  endfacet
  facet normal 0.683912 0.728291 0.0430846
    outer loop
      vertex -3.89998 -3.66233 2
      vertex -4.14592 -3.90464 10
      vertex -3.41022 -4.12225 2
    endloop
  endfacet
  facet normal 0.683917 0.728286 0.0430846
    outer loop
      vertex -4.14592 -3.90464 10
      vertex -3.89998 -3.66233 2
      vertex -4.15197 -3.89896 10
    endloop
  endfacet
  facet normal 0.903987 -0.425384 0.0430845
    outer loop
      vertex -4.99469 2.73641 10
      vertex -5.29571 2.09672 10
      vertex -4.9743 1.96947 2
    endloop
  endfacet
  facet normal 0.981375 -0.187207 0.0430845
    outer loop
      vertex -5.51829 1.40831 10
      vertex -5.65077 0.713858 10
      vertex -5.30781 0.670532 2
    endloop
  endfacet
  facet normal -0.9971 -0.0627327 0.0430845
    outer loop
      vertex 5.65077 0.713858 10
      vertex 5.30781 0.670532 2
      vertex 5.69516 0.00827813 10
    endloop
  endfacet
  facet normal -0.950173 0.30873 0.0430845
    outer loop
      vertex 4.9743 -1.96947 2
      vertex 5.29571 -2.09672 10
      vertex 5.51418 -1.42435 10
    endloop
  endfacet
  facet normal -0.125217 0.991193 0.0430846
    outer loop
      vertex 1.00249 -5.25524 2
      vertex 0.365863 -5.6834 10
      vertex 1.06726 -5.59479 10
    endloop
  endfacet
  facet normal -0.248459 0.967684 0.0430846
    outer loop
      vertex 1.00249 -5.25524 2
      vertex 1.0753 -5.59273 10
      vertex 1.65324 -5.08815 2
    endloop
  endfacet
  facet normal -0.248465 0.967682 0.0430846
    outer loop
      vertex 1.0753 -5.59273 10
      vertex 1.00249 -5.25524 2
      vertex 1.06726 -5.59479 10
    endloop
  endfacet
  facet normal -0.683917 0.728286 0.0430846
    outer loop
      vertex 3.89998 -3.66233 2
      vertex 4.14592 -3.90464 10
      vertex 4.15197 -3.89896 10
    endloop
  endfacet
  facet normal -0.683912 0.728291 0.0430846
    outer loop
      vertex 4.14592 -3.90464 10
      vertex 3.89998 -3.66233 2
      vertex 3.41022 -4.12225 2
    endloop
  endfacet
  facet normal 0.125208 0.991195 0.0430847
    outer loop
      vertex -0.335929 -5.33944 2
      vertex -0.365863 -5.6834 10
      vertex -0.357634 -5.68444 10
    endloop
  endfacet
  facet normal 0.125216 0.991194 0.0430846
    outer loop
      vertex -0.365863 -5.6834 10
      vertex -0.335929 -5.33944 2
      vertex -1.00249 -5.25524 2
    endloop
  endfacet
  facet normal 0.367783 0.928913 0.0430846
    outer loop
      vertex -2.27792 -4.84082 2
      vertex -2.41739 -5.15666 10
      vertex -1.65324 -5.08815 2
    endloop
  endfacet
  facet normal 0.367766 0.92892 0.0430845
    outer loop
      vertex -2.41739 -5.15666 10
      vertex -2.27792 -4.84082 2
      vertex -2.4251 -5.1536 10
    endloop
  endfacet
  facet normal 0.950173 0.30873 0.0430845
    outer loop
      vertex -5.51418 -1.42435 10
      vertex -5.29571 -2.09672 10
      vertex -4.9743 -1.96947 2
    endloop
  endfacet
  facet normal 0.843544 0.535329 0.0430846
    outer loop
      vertex -4.61235 -3.34083 10
      vertex -4.32824 -3.14465 2
      vertex -4.68824 -2.57738 2
    endloop
  endfacet
  facet normal 0.843535 0.535343 0.0430847
    outer loop
      vertex -4.32824 -3.14465 2
      vertex -4.61235 -3.34083 10
      vertex -4.6079 -3.34784 10
    endloop
  endfacet
  facet normal 0.950179 0.308714 0.0430847
    outer loop
      vertex -5.51418 -1.42435 10
      vertex -5.18192 -1.33049 2
      vertex -5.51674 -1.41646 10
    endloop
  endfacet
  facet normal 0.950174 0.308729 0.0430847
    outer loop
      vertex -5.18192 -1.33049 2
      vertex -5.51418 -1.42435 10
      vertex -4.9743 -1.96947 2
    endloop
  endfacet
  facet normal 0.981375 0.187209 0.0430846
    outer loop
      vertex -5.51829 -1.40831 10
      vertex -5.18192 -1.33049 2
      vertex -5.30781 -0.670532 2
    endloop
  endfacet
  facet normal 0.98138 0.187181 0.0430846
    outer loop
      vertex -5.18192 -1.33049 2
      vertex -5.51829 -1.40831 10
      vertex -5.51674 -1.41646 10
    endloop
  endfacet
  facet normal 0.981375 0.187207 0.0430845
    outer loop
      vertex -5.65077 -0.713858 10
      vertex -5.51829 -1.40831 10
      vertex -5.30781 -0.670532 2
    endloop
  endfacet
  facet normal -0.98138 -0.187181 0.0430846
    outer loop
      vertex 5.18192 1.33049 2
      vertex 5.51829 1.40831 10
      vertex 5.51674 1.41646 10
    endloop
  endfacet
  facet normal -0.981375 -0.187209 0.0430846
    outer loop
      vertex 5.51829 1.40831 10
      vertex 5.18192 1.33049 2
      vertex 5.30781 0.670532 2
    endloop
  endfacet
  facet normal -0.587229 -0.808273 0.0430847
    outer loop
      vertex 2.86667 4.51715 2
      vertex 3.05861 4.80415 10
      vertex 3.0519 4.80902 10
    endloop
  endfacet
  facet normal -0.587238 -0.808267 0.0430847
    outer loop
      vertex 3.05861 4.80415 10
      vertex 2.86667 4.51715 2
      vertex 3.41022 4.12225 2
    endloop
  endfacet
  facet normal 0.903975 -0.42541 0.0430846
    outer loop
      vertex -4.99469 2.73641 10
      vertex -4.68824 2.57738 2
      vertex -4.99116 2.74391 10
    endloop
  endfacet
  facet normal 0.903986 -0.425385 0.0430846
    outer loop
      vertex -4.68824 2.57738 2
      vertex -4.99469 2.73641 10
      vertex -4.9743 1.96947 2
    endloop
  endfacet
  facet normal 0.843535 -0.535343 0.0430847
    outer loop
      vertex -4.61235 3.34083 10
      vertex -4.32824 3.14465 2
      vertex -4.6079 3.34784 10
    endloop
  endfacet
  facet normal 0.843544 -0.535329 0.0430846
    outer loop
      vertex -4.32824 3.14465 2
      vertex -4.61235 3.34083 10
      vertex -4.68824 2.57738 2
    endloop
  endfacet
  facet normal 0.683917 -0.728286 0.0430846
    outer loop
      vertex -3.89998 3.66233 2
      vertex -4.14592 3.90464 10
      vertex -4.15197 3.89896 10
    endloop
  endfacet
  facet normal 0.683912 -0.728291 0.0430846
    outer loop
      vertex -4.14592 3.90464 10
      vertex -3.89998 3.66233 2
      vertex -3.41022 4.12225 2
    endloop
  endfacet
  facet normal 0.769798 -0.636832 0.0430846
    outer loop
      vertex -4.6079 3.34784 10
      vertex -4.32824 3.14465 2
      vertex -4.15726 3.89257 10
    endloop
  endfacet
  facet normal 0.843544 -0.535329 0.0430845
    outer loop
      vertex -4.99116 2.74391 10
      vertex -4.68824 2.57738 2
      vertex -4.61235 3.34083 10
    endloop
  endfacet
  facet normal 0.587238 -0.808267 0.0430847
    outer loop
      vertex -2.86667 4.51715 2
      vertex -3.05861 4.80415 10
      vertex -3.41022 4.12225 2
    endloop
  endfacet
  facet normal 0.587229 -0.808273 0.0430847
    outer loop
      vertex -3.05861 4.80415 10
      vertex -2.86667 4.51715 2
      vertex -3.0519 4.80902 10
    endloop
  endfacet
  facet normal 0 -0.999071 0.0430846
    outer loop
      vertex -0.335929 5.33944 2
      vertex 0.357634 5.68444 10
      vertex -0.357634 5.68444 10
    endloop
  endfacet
  facet normal 0 -0.999071 0.0430846
    outer loop
      vertex 0.357634 5.68444 10
      vertex -0.335929 5.33944 2
      vertex 0.335929 5.33944 2
    endloop
  endfacet
  facet normal 0.248459 -0.967684 0.0430846
    outer loop
      vertex -1.00249 5.25524 2
      vertex -1.0753 5.59273 10
      vertex -1.65324 5.08815 2
    endloop
  endfacet
  facet normal 0.248465 -0.967682 0.0430846
    outer loop
      vertex -1.0753 5.59273 10
      vertex -1.00249 5.25524 2
      vertex -1.06726 5.59479 10
    endloop
  endfacet
  facet normal 0.58724 -0.808265 0.0430845
    outer loop
      vertex -3.63056 4.3886 10
      vertex -3.41022 4.12225 2
      vertex -3.05861 4.80415 10
    endloop
  endfacet
  facet normal -0.981375 0.187207 0.0430845
    outer loop
      vertex 5.30781 -0.670532 2
      vertex 5.51829 -1.40831 10
      vertex 5.65077 -0.713858 10
    endloop
  endfacet
  facet normal -0.9971 0.0627327 0.0430845
    outer loop
      vertex 5.30781 -0.670532 2
      vertex 5.65077 -0.713858 10
      vertex 5.69516 -0.00827813 10
    endloop
  endfacet
  facet normal -0.481306 0.875493 0.0430846
    outer loop
      vertex 2.27792 -4.84082 2
      vertex 2.4251 -5.1536 10
      vertex 3.04463 -4.81302 10
    endloop
  endfacet
  facet normal -0.843544 0.535329 0.0430845
    outer loop
      vertex 4.68824 -2.57738 2
      vertex 4.61235 -3.34083 10
      vertex 4.99116 -2.74391 10
    endloop
  endfacet
  facet normal -0.769798 0.636832 0.0430846
    outer loop
      vertex 3.89998 -3.66233 2
      vertex 4.15726 -3.89257 10
      vertex 4.32824 -3.14465 2
    endloop
  endfacet
  facet normal -0.769796 0.636835 0.0430846
    outer loop
      vertex 4.15726 -3.89257 10
      vertex 3.89998 -3.66233 2
      vertex 4.15197 -3.89896 10
    endloop
  endfacet
  facet normal 0.125217 0.991193 0.0430846
    outer loop
      vertex -1.00249 -5.25524 2
      vertex -1.06726 -5.59479 10
      vertex -0.365863 -5.6834 10
    endloop
  endfacet
  facet normal 0.481306 0.875493 0.0430846
    outer loop
      vertex -3.04463 -4.81302 10
      vertex -2.4251 -5.1536 10
      vertex -2.27792 -4.84082 2
    endloop
  endfacet
  facet normal 0.248465 0.967682 0.0430846
    outer loop
      vertex -1.00249 -5.25524 2
      vertex -1.0753 -5.59273 10
      vertex -1.06726 -5.59479 10
    endloop
  endfacet
  facet normal 0.248459 0.967684 0.0430846
    outer loop
      vertex -1.0753 -5.59273 10
      vertex -1.00249 -5.25524 2
      vertex -1.65324 -5.08815 2
    endloop
  endfacet
  facet normal 0.769798 0.636832 0.0430846
    outer loop
      vertex -4.32824 -3.14465 2
      vertex -4.6079 -3.34784 10
      vertex -4.15726 -3.89257 10
    endloop
  endfacet
  facet normal 0.903987 0.425384 0.0430845
    outer loop
      vertex -5.29571 -2.09672 10
      vertex -4.99469 -2.73641 10
      vertex -4.9743 -1.96947 2
    endloop
  endfacet
  facet normal 0.9971 0.0627327 0.0430845
    outer loop
      vertex -5.69516 -0.00827813 10
      vertex -5.65077 -0.713858 10
      vertex -5.30781 -0.670532 2
    endloop
  endfacet
  facet normal 0.997101 0.0627191 0.0430846
    outer loop
      vertex -5.69516 -0.00827813 10
      vertex -5.35 0 2
      vertex -5.69568 0 10
    endloop
  endfacet
  facet normal 0.9971 0.0627314 0.0430846
    outer loop
      vertex -5.35 0 2
      vertex -5.69516 -0.00827813 10
      vertex -5.30781 -0.670532 2
    endloop
  endfacet
  facet normal 0 0 1
    outer loop
      vertex 5.30781 0.670532 2
      vertex 5.30781 -0.670532 2
      vertex 5.35 0 2
    endloop
  endfacet
  facet normal 0 0 1
    outer loop
      vertex 5.18192 1.33049 2
      vertex 5.30781 -0.670532 2
      vertex 5.30781 0.670532 2
    endloop
  endfacet
  facet normal 0 0 1
    outer loop
      vertex 5.18192 1.33049 2
      vertex 5.18192 -1.33049 2
      vertex 5.30781 -0.670532 2
    endloop
  endfacet
  facet normal 0 0 1
    outer loop
      vertex 4.9743 1.96947 2
      vertex 5.18192 -1.33049 2
      vertex 5.18192 1.33049 2
    endloop
  endfacet
  facet normal 0 0 1
    outer loop
      vertex 4.9743 1.96947 2
      vertex 4.9743 -1.96947 2
      vertex 5.18192 -1.33049 2
    endloop
  endfacet
  facet normal 0 0 1
    outer loop
      vertex 4.68824 2.57738 2
      vertex 4.9743 -1.96947 2
      vertex 4.9743 1.96947 2
    endloop
  endfacet
  facet normal 0 0 1
    outer loop
      vertex 4.68824 2.57738 2
      vertex 4.68824 -2.57738 2
      vertex 4.9743 -1.96947 2
    endloop
  endfacet
  facet normal 0 0 1
    outer loop
      vertex 4.32824 3.14465 2
      vertex 4.68824 -2.57738 2
      vertex 4.68824 2.57738 2
    endloop
  endfacet
  facet normal 0 0 1
    outer loop
      vertex 4.32824 3.14465 2
      vertex 4.32824 -3.14465 2
      vertex 4.68824 -2.57738 2
    endloop
  endfacet
  facet normal 0 0 1
    outer loop
      vertex 3.89998 3.66233 2
      vertex 4.32824 -3.14465 2
      vertex 4.32824 3.14465 2
    endloop
  endfacet
  facet normal 0 0 1
    outer loop
      vertex 3.89998 3.66233 2
      vertex 3.89998 -3.66233 2
      vertex 4.32824 -3.14465 2
    endloop
  endfacet
  facet normal 0 0 1
    outer loop
      vertex 3.41022 4.12225 2
      vertex 3.89998 -3.66233 2
      vertex 3.89998 3.66233 2
    endloop
  endfacet
  facet normal 0 0 1
    outer loop
      vertex 3.41022 4.12225 2
      vertex 3.41022 -4.12225 2
      vertex 3.89998 -3.66233 2
    endloop
  endfacet
  facet normal 0 0 1
    outer loop
      vertex 2.86667 4.51715 2
      vertex 3.41022 -4.12225 2
      vertex 3.41022 4.12225 2
    endloop
  endfacet
  facet normal 0 0 1
    outer loop
      vertex 2.86667 4.51715 2
      vertex 2.86667 -4.51715 2
      vertex 3.41022 -4.12225 2
    endloop
  endfacet
  facet normal 0 0 1
    outer loop
      vertex 2.27792 4.84082 2
      vertex 2.86667 -4.51715 2
      vertex 2.86667 4.51715 2
    endloop
  endfacet
  facet normal 0 0 1
    outer loop
      vertex 2.27792 4.84082 2
      vertex 2.27792 -4.84082 2
      vertex 2.86667 -4.51715 2
    endloop
  endfacet
  facet normal 0 0 1
    outer loop
      vertex 1.65324 5.08815 2
      vertex 2.27792 -4.84082 2
      vertex 2.27792 4.84082 2
    endloop
  endfacet
  facet normal 0 0 1
    outer loop
      vertex 1.65324 5.08815 2
      vertex 1.65324 -5.08815 2
      vertex 2.27792 -4.84082 2
    endloop
  endfacet
  facet normal 0 0 1
    outer loop
      vertex 1.00249 5.25524 2
      vertex 1.65324 -5.08815 2
      vertex 1.65324 5.08815 2
    endloop
  endfacet
  facet normal 0 0 1
    outer loop
      vertex 1.00249 5.25524 2
      vertex 1.00249 -5.25524 2
      vertex 1.65324 -5.08815 2
    endloop
  endfacet
  facet normal 0 0 1
    outer loop
      vertex 0.335929 5.33944 2
      vertex 1.00249 -5.25524 2
      vertex 1.00249 5.25524 2
    endloop
  endfacet
  facet normal 0 0 1
    outer loop
      vertex 0.335929 5.33944 2
      vertex 0.335929 -5.33944 2
      vertex 1.00249 -5.25524 2
    endloop
  endfacet
  facet normal -0 0 1
    outer loop
      vertex -0.335929 5.33944 2
      vertex 0.335929 -5.33944 2
      vertex 0.335929 5.33944 2
    endloop
  endfacet
  facet normal 0 0 1
    outer loop
      vertex -0.335929 5.33944 2
      vertex -0.335929 -5.33944 2
      vertex 0.335929 -5.33944 2
    endloop
  endfacet
  facet normal -0 0 1
    outer loop
      vertex -1.00249 5.25524 2
      vertex -0.335929 -5.33944 2
      vertex -0.335929 5.33944 2
    endloop
  endfacet
  facet normal 0 0 1
    outer loop
      vertex -1.00249 5.25524 2
      vertex -1.00249 -5.25524 2
      vertex -0.335929 -5.33944 2
    endloop
  endfacet
  facet normal -0 0 1
    outer loop
      vertex -1.65324 5.08815 2
      vertex -1.00249 -5.25524 2
      vertex -1.00249 5.25524 2
    endloop
  endfacet
  facet normal 0 0 1
    outer loop
      vertex -1.65324 5.08815 2
      vertex -1.65324 -5.08815 2
      vertex -1.00249 -5.25524 2
    endloop
  endfacet
  facet normal -0 0 1
    outer loop
      vertex -2.27792 4.84082 2
      vertex -1.65324 -5.08815 2
      vertex -1.65324 5.08815 2
    endloop
  endfacet
  facet normal 0 0 1
    outer loop
      vertex -2.27792 4.84082 2
      vertex -2.27792 -4.84082 2
      vertex -1.65324 -5.08815 2
    endloop
  endfacet
  facet normal -0 0 1
    outer loop
      vertex -2.86667 4.51715 2
      vertex -2.27792 -4.84082 2
      vertex -2.27792 4.84082 2
    endloop
  endfacet
  facet normal 0 0 1
    outer loop
      vertex -2.86667 4.51715 2
      vertex -2.86667 -4.51715 2
      vertex -2.27792 -4.84082 2
    endloop
  endfacet
  facet normal -0 0 1
    outer loop
      vertex -3.41022 4.12225 2
      vertex -2.86667 -4.51715 2
      vertex -2.86667 4.51715 2
    endloop
  endfacet
  facet normal 0 0 1
    outer loop
      vertex -3.41022 4.12225 2
      vertex -3.41022 -4.12225 2
      vertex -2.86667 -4.51715 2
    endloop
  endfacet
  facet normal -0 0 1
    outer loop
      vertex -3.89998 3.66233 2
      vertex -3.41022 -4.12225 2
      vertex -3.41022 4.12225 2
    endloop
  endfacet
  facet normal 0 0 1
    outer loop
      vertex -3.89998 3.66233 2
      vertex -3.89998 -3.66233 2
      vertex -3.41022 -4.12225 2
    endloop
  endfacet
  facet normal -0 0 1
    outer loop
      vertex -4.32824 3.14465 2
      vertex -3.89998 -3.66233 2
      vertex -3.89998 3.66233 2
    endloop
  endfacet
  facet normal 0 0 1
    outer loop
      vertex -4.32824 3.14465 2
      vertex -4.32824 -3.14465 2
      vertex -3.89998 -3.66233 2
    endloop
  endfacet
  facet normal -0 0 1
    outer loop
      vertex -4.68824 2.57738 2
      vertex -4.32824 -3.14465 2
      vertex -4.32824 3.14465 2
    endloop
  endfacet
  facet normal 0 0 1
    outer loop
      vertex -4.68824 2.57738 2
      vertex -4.68824 -2.57738 2
      vertex -4.32824 -3.14465 2
    endloop
  endfacet
  facet normal -0 0 1
    outer loop
      vertex -4.9743 1.96947 2
      vertex -4.68824 -2.57738 2
      vertex -4.68824 2.57738 2
    endloop
  endfacet
  facet normal 0 0 1
    outer loop
      vertex -4.9743 1.96947 2
      vertex -4.9743 -1.96947 2
      vertex -4.68824 -2.57738 2
    endloop
  endfacet
  facet normal -0 0 1
    outer loop
      vertex -5.18192 1.33049 2
      vertex -4.9743 -1.96947 2
      vertex -4.9743 1.96947 2
    endloop
  endfacet
  facet normal 0 0 1
    outer loop
      vertex -5.18192 1.33049 2
      vertex -5.18192 -1.33049 2
      vertex -4.9743 -1.96947 2
    endloop
  endfacet
  facet normal -0 0 1
    outer loop
      vertex -5.30781 0.670532 2
      vertex -5.18192 -1.33049 2
      vertex -5.18192 1.33049 2
    endloop
  endfacet
  facet normal 0 0 1
    outer loop
      vertex -5.30781 0.670532 2
      vertex -5.30781 -0.670532 2
      vertex -5.18192 -1.33049 2
    endloop
  endfacet
  facet normal 0 -0 1
    outer loop
      vertex -5.30781 -0.670532 2
      vertex -5.30781 0.670532 2
      vertex -5.35 0 2
    endloop
  endfacet
  facet normal -0.9971 -0.0627314 0.0430846
    outer loop
      vertex 5.35 0 2
      vertex 5.69516 0.00827813 10
      vertex 5.30781 0.670532 2
    endloop
  endfacet
  facet normal -0.997101 -0.0627191 0.0430846
    outer loop
      vertex 5.69516 0.00827813 10
      vertex 5.35 0 2
      vertex 5.69568 0 10
    endloop
  endfacet
  facet normal -0.950173 -0.30873 0.0430845
    outer loop
      vertex 5.29571 2.09672 10
      vertex 4.9743 1.96947 2
      vertex 5.51418 1.42435 10
    endloop
  endfacet
  facet normal -0.950174 -0.308729 0.0430847
    outer loop
      vertex 5.18192 1.33049 2
      vertex 5.51418 1.42435 10
      vertex 4.9743 1.96947 2
    endloop
  endfacet
  facet normal -0.950179 -0.308714 0.0430847
    outer loop
      vertex 5.51418 1.42435 10
      vertex 5.18192 1.33049 2
      vertex 5.51674 1.41646 10
    endloop
  endfacet
  facet normal -0.24846 -0.967684 0.0430846
    outer loop
      vertex 1.0753 5.59273 10
      vertex 1.65324 5.08815 2
      vertex 1.76006 5.41691 10
    endloop
  endfacet
  facet normal -0.367783 -0.928913 0.0430846
    outer loop
      vertex 1.76006 5.41691 10
      vertex 1.65324 5.08815 2
      vertex 2.41739 5.15666 10
    endloop
  endfacet
  facet normal -0.125217 -0.991193 0.0430846
    outer loop
      vertex 0.365863 5.6834 10
      vertex 1.00249 5.25524 2
      vertex 1.06726 5.59479 10
    endloop
  endfacet
  facet normal 0.950179 -0.308714 0.0430847
    outer loop
      vertex -5.18192 1.33049 2
      vertex -5.51418 1.42435 10
      vertex -5.51674 1.41646 10
    endloop
  endfacet
  facet normal 0.950174 -0.308729 0.0430847
    outer loop
      vertex -5.51418 1.42435 10
      vertex -5.18192 1.33049 2
      vertex -4.9743 1.96947 2
    endloop
  endfacet
  facet normal 0.950173 -0.30873 0.0430845
    outer loop
      vertex -5.29571 2.09672 10
      vertex -5.51418 1.42435 10
      vertex -4.9743 1.96947 2
    endloop
  endfacet
  facet normal 0.769796 -0.636835 0.0430846
    outer loop
      vertex -4.15726 3.89257 10
      vertex -3.89998 3.66233 2
      vertex -4.15197 3.89896 10
    endloop
  endfacet
  facet normal 0.769798 -0.636832 0.0430846
    outer loop
      vertex -3.89998 3.66233 2
      vertex -4.15726 3.89257 10
      vertex -4.32824 3.14465 2
    endloop
  endfacet
  facet normal 0.125216 -0.991194 0.0430846
    outer loop
      vertex -0.335929 5.33944 2
      vertex -0.365863 5.6834 10
      vertex -1.00249 5.25524 2
    endloop
  endfacet
  facet normal 0.125208 -0.991195 0.0430847
    outer loop
      vertex -0.365863 5.6834 10
      vertex -0.335929 5.33944 2
      vertex -0.357634 5.68444 10
    endloop
  endfacet
  facet normal 0.24846 -0.967684 0.0430846
    outer loop
      vertex -1.76006 5.41691 10
      vertex -1.65324 5.08815 2
      vertex -1.0753 5.59273 10
    endloop
  endfacet
  facet normal -0.125216 0.991194 0.0430846
    outer loop
      vertex 0.335929 -5.33944 2
      vertex 0.365863 -5.6834 10
      vertex 1.00249 -5.25524 2
    endloop
  endfacet
  facet normal -0.125208 0.991195 0.0430847
    outer loop
      vertex 0.365863 -5.6834 10
      vertex 0.335929 -5.33944 2
      vertex 0.357634 -5.68444 10
    endloop
  endfacet
  facet normal -0.367783 0.928913 0.0430846
    outer loop
      vertex 1.65324 -5.08815 2
      vertex 1.76006 -5.41691 10
      vertex 2.41739 -5.15666 10
    endloop
  endfacet
  facet normal -0.367766 0.92892 0.0430845
    outer loop
      vertex 2.27792 -4.84082 2
      vertex 2.41739 -5.15666 10
      vertex 2.4251 -5.1536 10
    endloop
  endfacet
  facet normal -0.367783 0.928913 0.0430846
    outer loop
      vertex 2.41739 -5.15666 10
      vertex 2.27792 -4.84082 2
      vertex 1.65324 -5.08815 2
    endloop
  endfacet
  facet normal -0.587238 0.808267 0.0430847
    outer loop
      vertex 2.86667 -4.51715 2
      vertex 3.05861 -4.80415 10
      vertex 3.41022 -4.12225 2
    endloop
  endfacet
  facet normal -0.587229 0.808273 0.0430847
    outer loop
      vertex 3.05861 -4.80415 10
      vertex 2.86667 -4.51715 2
      vertex 3.0519 -4.80902 10
    endloop
  endfacet
  facet normal -0.950179 0.308714 0.0430847
    outer loop
      vertex 5.18192 -1.33049 2
      vertex 5.51418 -1.42435 10
      vertex 5.51674 -1.41646 10
    endloop
  endfacet
  facet normal -0.950174 0.308729 0.0430847
    outer loop
      vertex 5.51418 -1.42435 10
      vertex 5.18192 -1.33049 2
      vertex 4.9743 -1.96947 2
    endloop
  endfacet
  facet normal -0.903986 0.425385 0.0430846
    outer loop
      vertex 4.68824 -2.57738 2
      vertex 4.99469 -2.73641 10
      vertex 4.9743 -1.96947 2
    endloop
  endfacet
  facet normal -0.903975 0.42541 0.0430846
    outer loop
      vertex 4.99469 -2.73641 10
      vertex 4.68824 -2.57738 2
      vertex 4.99116 -2.74391 10
    endloop
  endfacet
  facet normal -0.903987 0.425384 0.0430845
    outer loop
      vertex 4.9743 -1.96947 2
      vertex 4.99469 -2.73641 10
      vertex 5.29571 -2.09672 10
    endloop
  endfacet
  facet normal -0.843544 0.535329 0.0430846
    outer loop
      vertex 4.32824 -3.14465 2
      vertex 4.61235 -3.34083 10
      vertex 4.68824 -2.57738 2
    endloop
  endfacet
  facet normal -0.843535 0.535343 0.0430847
    outer loop
      vertex 4.61235 -3.34083 10
      vertex 4.32824 -3.14465 2
      vertex 4.6079 -3.34784 10
    endloop
  endfacet
  facet normal -0.769798 0.636832 0.0430846
    outer loop
      vertex 4.32824 -3.14465 2
      vertex 4.15726 -3.89257 10
      vertex 4.6079 -3.34784 10
    endloop
  endfacet
  facet normal 0.481307 0.875493 0.0430847
    outer loop
      vertex -2.86667 -4.51715 2
      vertex -3.04463 -4.81302 10
      vertex -2.27792 -4.84082 2
    endloop
  endfacet
  facet normal 0.48131 0.875491 0.0430847
    outer loop
      vertex -3.04463 -4.81302 10
      vertex -2.86667 -4.51715 2
      vertex -3.0519 -4.80902 10
    endloop
  endfacet
  facet normal 0.587229 0.808273 0.0430847
    outer loop
      vertex -2.86667 -4.51715 2
      vertex -3.05861 -4.80415 10
      vertex -3.0519 -4.80902 10
    endloop
  endfacet
  facet normal 0.587238 0.808267 0.0430847
    outer loop
      vertex -3.05861 -4.80415 10
      vertex -2.86667 -4.51715 2
      vertex -3.41022 -4.12225 2
    endloop
  endfacet
  facet normal 0.24846 0.967684 0.0430846
    outer loop
      vertex -1.65324 -5.08815 2
      vertex -1.76006 -5.41691 10
      vertex -1.0753 -5.59273 10
    endloop
  endfacet
  facet normal 0.367783 0.928913 0.0430846
    outer loop
      vertex -2.41739 -5.15666 10
      vertex -1.76006 -5.41691 10
      vertex -1.65324 -5.08815 2
    endloop
  endfacet
  facet normal 0.903986 0.425385 0.0430846
    outer loop
      vertex -4.99469 -2.73641 10
      vertex -4.68824 -2.57738 2
      vertex -4.9743 -1.96947 2
    endloop
  endfacet
  facet normal 0.903975 0.42541 0.0430846
    outer loop
      vertex -4.68824 -2.57738 2
      vertex -4.99469 -2.73641 10
      vertex -4.99116 -2.74391 10
    endloop
  endfacet
  facet normal 0.769798 0.636832 0.0430846
    outer loop
      vertex -4.15726 -3.89257 10
      vertex -3.89998 -3.66233 2
      vertex -4.32824 -3.14465 2
    endloop
  endfacet
  facet normal 0.769796 0.636835 0.0430846
    outer loop
      vertex -3.89998 -3.66233 2
      vertex -4.15726 -3.89257 10
      vertex -4.15197 -3.89896 10
    endloop
  endfacet
  facet normal 0.843544 0.535329 0.0430845
    outer loop
      vertex -4.68824 -2.57738 2
      vertex -4.99116 -2.74391 10
      vertex -4.61235 -3.34083 10
    endloop
  endfacet
  facet normal -0.981375 -0.187207 0.0430845
    outer loop
      vertex 5.51829 1.40831 10
      vertex 5.30781 0.670532 2
      vertex 5.65077 0.713858 10
    endloop
  endfacet
  facet normal -0.903987 -0.425384 0.0430845
    outer loop
      vertex 4.99469 2.73641 10
      vertex 4.9743 1.96947 2
      vertex 5.29571 2.09672 10
    endloop
  endfacet
  facet normal -0.481307 -0.875493 0.0430847
    outer loop
      vertex 2.86667 4.51715 2
      vertex 3.04463 4.81302 10
      vertex 2.27792 4.84082 2
    endloop
  endfacet
  facet normal -0.48131 -0.875491 0.0430847
    outer loop
      vertex 3.04463 4.81302 10
      vertex 2.86667 4.51715 2
      vertex 3.0519 4.80902 10
    endloop
  endfacet
  facet normal 0.125217 -0.991193 0.0430846
    outer loop
      vertex -1.06726 5.59479 10
      vertex -1.00249 5.25524 2
      vertex -0.365863 5.6834 10
    endloop
  endfacet
  facet normal 0.48131 -0.875491 0.0430847
    outer loop
      vertex -2.86667 4.51715 2
      vertex -3.04463 4.81302 10
      vertex -3.0519 4.80902 10
    endloop
  endfacet
  facet normal 0.481307 -0.875493 0.0430847
    outer loop
      vertex -3.04463 4.81302 10
      vertex -2.86667 4.51715 2
      vertex -2.27792 4.84082 2
    endloop
  endfacet
  facet normal 0.481306 -0.875493 0.0430846
    outer loop
      vertex -2.4251 5.1536 10
      vertex -3.04463 4.81302 10
      vertex -2.27792 4.84082 2
    endloop
  endfacet
  facet normal 0.367766 -0.92892 0.0430845
    outer loop
      vertex -2.27792 4.84082 2
      vertex -2.41739 5.15666 10
      vertex -2.4251 5.1536 10
    endloop
  endfacet
  facet normal 0.367783 -0.928913 0.0430846
    outer loop
      vertex -2.41739 5.15666 10
      vertex -2.27792 4.84082 2
      vertex -1.65324 5.08815 2
    endloop
  endfacet
  facet normal 0.367783 -0.928913 0.0430846
    outer loop
      vertex -1.76006 5.41691 10
      vertex -2.41739 5.15666 10
      vertex -1.65324 5.08815 2
    endloop
  endfacet
  facet normal -0.24846 0.967684 0.0430846
    outer loop
      vertex 1.65324 -5.08815 2
      vertex 1.0753 -5.59273 10
      vertex 1.76006 -5.41691 10
    endloop
  endfacet
  facet normal -0.48131 0.875491 0.0430847
    outer loop
      vertex 2.86667 -4.51715 2
      vertex 3.04463 -4.81302 10
      vertex 3.0519 -4.80902 10
    endloop
  endfacet
  facet normal -0.481307 0.875493 0.0430847
    outer loop
      vertex 3.04463 -4.81302 10
      vertex 2.86667 -4.51715 2
      vertex 2.27792 -4.84082 2
    endloop
  endfacet
  facet normal -0.58724 0.808265 0.0430845
    outer loop
      vertex 3.41022 -4.12225 2
      vertex 3.05861 -4.80415 10
      vertex 3.63056 -4.3886 10
    endloop
  endfacet
  facet normal -0.683911 0.728292 0.0430845
    outer loop
      vertex 3.41022 -4.12225 2
      vertex 3.63056 -4.3886 10
      vertex 4.14592 -3.90464 10
    endloop
  endfacet
  facet normal 0.58724 0.808265 0.0430845
    outer loop
      vertex -3.41022 -4.12225 2
      vertex -3.63056 -4.3886 10
      vertex -3.05861 -4.80415 10
    endloop
  endfacet
  facet normal 0.683911 0.728292 0.0430845
    outer loop
      vertex -4.14592 -3.90464 10
      vertex -3.63056 -4.3886 10
      vertex -3.41022 -4.12225 2
    endloop
  endfacet
  facet normal -0.843535 -0.535343 0.0430847
    outer loop
      vertex 4.32824 3.14465 2
      vertex 4.61235 3.34083 10
      vertex 4.6079 3.34784 10
    endloop
  endfacet
  facet normal -0.843544 -0.535329 0.0430846
    outer loop
      vertex 4.61235 3.34083 10
      vertex 4.32824 3.14465 2
      vertex 4.68824 2.57738 2
    endloop
  endfacet
  facet normal -0.683911 -0.728292 0.0430845
    outer loop
      vertex 3.63056 4.3886 10
      vertex 3.41022 4.12225 2
      vertex 4.14592 3.90464 10
    endloop
  endfacet
  facet normal -0.58724 -0.808265 0.0430845
    outer loop
      vertex 3.05861 4.80415 10
      vertex 3.41022 4.12225 2
      vertex 3.63056 4.3886 10
    endloop
  endfacet
  facet normal -0.683912 -0.728291 0.0430846
    outer loop
      vertex 3.89998 3.66233 2
      vertex 4.14592 3.90464 10
      vertex 3.41022 4.12225 2
    endloop
  endfacet
  facet normal -0.683917 -0.728286 0.0430846
    outer loop
      vertex 4.14592 3.90464 10
      vertex 3.89998 3.66233 2
      vertex 4.15197 3.89896 10
    endloop
  endfacet
  facet normal -0.769796 -0.636835 0.0430846
    outer loop
      vertex 3.89998 3.66233 2
      vertex 4.15726 3.89257 10
      vertex 4.15197 3.89896 10
    endloop
  endfacet
  facet normal -0.769798 -0.636832 0.0430846
    outer loop
      vertex 4.15726 3.89257 10
      vertex 3.89998 3.66233 2
      vertex 4.32824 3.14465 2
    endloop
  endfacet
  facet normal -0.367783 -0.928913 0.0430846
    outer loop
      vertex 2.27792 4.84082 2
      vertex 2.41739 5.15666 10
      vertex 1.65324 5.08815 2
    endloop
  endfacet
  facet normal -0.367766 -0.92892 0.0430845
    outer loop
      vertex 2.41739 5.15666 10
      vertex 2.27792 4.84082 2
      vertex 2.4251 5.1536 10
    endloop
  endfacet
  facet normal -0.481306 -0.875493 0.0430846
    outer loop
      vertex 2.4251 5.1536 10
      vertex 2.27792 4.84082 2
      vertex 3.04463 4.81302 10
    endloop
  endfacet
  facet normal -0.903975 -0.42541 0.0430846
    outer loop
      vertex 4.68824 2.57738 2
      vertex 4.99469 2.73641 10
      vertex 4.99116 2.74391 10
    endloop
  endfacet
  facet normal -0.903986 -0.425385 0.0430846
    outer loop
      vertex 4.99469 2.73641 10
      vertex 4.68824 2.57738 2
      vertex 4.9743 1.96947 2
    endloop
  endfacet
  facet normal -0.843544 -0.535329 0.0430845
    outer loop
      vertex 4.61235 3.34083 10
      vertex 4.68824 2.57738 2
      vertex 4.99116 2.74391 10
    endloop
  endfacet
endsolid OpenSCAD_Model
